<?xml version="1.0" encoding="utf-8"?>
<!-- Generator: Adobe Illustrator 22.1.0, SVG Export Plug-In . SVG Version: 6.00 Build 0)  -->
<svg version="1.1" id="Layer_1" xmlns="http://www.w3.org/2000/svg" xmlns:xlink="http://www.w3.org/1999/xlink" x="0px" y="0px"
	 viewBox="0 0 512 512" style="enable-background:new 0 0 512 512;" xml:space="preserve">
<path id="_2D_3D" d="M2.7,221.9h124.2l3.8-31.6H57c5-4.5,9.4-8.5,13.6-11.9L83.3,168c7.7-6.9,14.4-13.4,20-19.3
	c5.3-5.4,10-11.4,14-17.8c3.4-5.6,6.2-11.7,8.1-18c1.9-6.5,2.8-13.3,2.7-20.1c0.8-15-4.9-29.6-15.6-40.2C99.9,42,83.5,36.7,67,37.9
	c-9.8-0.3-19.5,1.2-28.8,4.4C31,44.8,24.4,49,18.8,54.3c-5,5.1-9.1,11.1-12.1,17.6c-3,6.8-5.2,13.9-6.7,21.1l35.3,4.1
	c1.2-8.4,5-16.1,10.9-22.2c5.9-4.2,13.1-6.2,20.4-5.8c6.5-0.3,12.9,2.3,17.3,7.1c4.3,5.1,6.6,11.6,6.3,18.3c0,5.3-0.9,10.7-2.7,15.7
	c-2,5.2-4.8,10-8.3,14.4c-4,5.4-8.5,10.4-13.4,15c-5.6,5.2-11.9,11-19.2,17.4c-7.3,6.4-14.8,12.8-21.9,18.8s-14.6,12.2-22.1,18.8
	L2.7,221.9L2.7,221.9z M162.6,221.9h62.8c13.7,0.2,27.3-1.8,40.3-6c22.9-7.1,41.2-24.6,49.3-47.2c4.7-13,7-26.7,6.7-40.4
	c5.6-44.9-26.3-85.8-71.2-91.3c-6.3-0.8-12.6-0.8-18.9-0.2h-69.1V221.9z M201.2,189V69.7h30.5c7.9-0.2,15.9,1.2,23.2,4.1
	c6,2.5,11.3,6.5,15.4,11.7c4.2,5.5,7.2,11.8,8.8,18.5c1.8,8,2.7,16.3,2.7,24.5c0,8.3-1,16.7-3.1,24.7c-1.9,7-5.2,13.4-9.8,19
	c-4.6,5.5-10.6,9.7-17.3,12.3c-8.2,3-16.8,4.5-25.5,4.3H201.2L201.2,189z M189.1,414.2c0.5,7.3,1.7,14.6,3.8,21.6
	c2.3,7.3,6.2,14.1,11.3,19.8c5.7,6.3,12.7,11.2,20.5,14.4c10.3,4.1,21.2,6,32.3,5.6c9.9,0.2,19.8-1.2,29.2-4.3
	c7.5-2.4,14.4-6.4,20.2-11.8c5.3-5,9.3-11.2,11.5-18.1c2.5-7.5,3.8-15.4,3.6-23.3c0.1-8.6-2.1-17-6.3-24.5
	c-5.1-8.2-12.8-14.5-21.9-17.8c7.6-3.8,13.9-9.7,18.2-17c3.9-7.2,5.9-15.3,5.8-23.5c0.1-6.5-1.2-13-3.6-19
	c-2.5-6-6.5-11.3-11.5-15.4c-5.6-4.6-12.1-8.1-19-10.3c-17.6-5-36.3-5-54,0.1c-7.1,2.3-13.6,6-19.2,10.9
	c-5.3,4.6-9.5,10.3-12.5,16.6c-3.1,6.6-5.5,13.6-6.9,20.7l34.8,4.7c1.2-7.8,5.1-14.9,10.9-20.2c5.8-4.1,12.9-6.1,20-5.8
	c4-0.1,7.9,0.5,11.7,1.7c2.8,1,5.4,2.6,7.5,4.7c1.9,2,3.3,4.4,4,7c0.9,2.7,1.4,5.6,1.3,8.4c1.6,11.2-6.2,21.5-17.3,23
	c-1.9,0.3-3.8,0.3-5.7,0h-20.2v31.9h18c7.7-0.7,15.5,1.3,21.9,5.8c4.9,5.1,7.4,12,6.7,19c0.7,7.4-2.3,14.6-8.1,19.3
	c-5.9,4.1-13,6.1-20.2,5.8c-7.7,0.6-15.3-1.8-21.3-6.7c-5.6-6.6-8.7-14.9-8.6-23.6h-37.1L189.1,414.2z M352.2,470.9h62.8
	c13.7,0.2,27.4-1.8,40.5-6c11.3-3.7,21.7-9.8,30.3-17.9c8.4-8.2,14.9-18.2,19-29.3c4.6-13,6.8-26.7,6.5-40.4
	c5.7-44.7-25.9-85.6-70.6-91.3c-6.4-0.8-12.9-0.9-19.3-0.2h-69.3L352.2,470.9L352.2,470.9z M390.9,438V318.8h30.5
	c7.9-0.2,15.9,1.2,23.2,4.1c6,2.6,11.2,6.6,15.4,11.7c4.2,5.4,7.2,11.8,8.6,18.5c1.9,8,2.8,16.3,2.7,24.5c0.1,8.4-0.9,16.7-3.1,24.7
	c-1.9,6.9-5.2,13.4-9.6,19c-4.6,5.5-10.6,9.7-17.3,12.3c-8.2,3-17,4.5-25.7,4.3H390.9L390.9,438z"/>
</svg>
