<?xml version="1.0" encoding="utf-8"?>
<!-- Generator: Adobe Illustrator 22.1.0, SVG Export Plug-In . SVG Version: 6.00 Build 0)  -->
<svg version="1.1" id="Layer_1" xmlns="http://www.w3.org/2000/svg" xmlns:xlink="http://www.w3.org/1999/xlink" x="0px" y="0px"
	 viewBox="0 0 512 512" style="enable-background:new 0 0 512 512;" xml:space="preserve">
<path id="_" d="M304.2,268.3c-1.7,9.9-4.4,19.6-8,28.9c-3.1,8.7-7.6,16.7-13.4,23.8c-5.8,6.9-13,12.5-21.1,16.5
	c-9.2,4.4-19.2,6.5-29.4,6.2c-12.9,0.3-25.3-5.4-33.3-15.6c-9.6-14.3-14-31.4-12.6-48.5c-0.3-15.3,1.6-30.6,5.7-45.4
	c3.2-12.1,8.5-23.5,15.7-33.8c6.3-8.8,14.5-16.1,24-21.3c9-4.9,19.1-7.5,29.4-7.4c12-0.5,23.8,3.5,33,11.3
	c8.8,8.8,14.1,20.5,14.7,32.9c0.3,2.3,0.4,4.7,0.3,7.1c-0.2,2.4-0.3,4.7-0.3,7.1l-0.5,11.9c0.5-1.9,0.8-2,0.5-0.3
	c-0.3,1.7-0.8,3.9-1.3,6.5L304.2,268.3z M378,416.9c-6.4,7.2-13.5,13.7-21.1,19.6c-8.4,6.2-17.5,11.4-27.1,15.3
	c-11.3,4.7-23.2,8-35.3,9.9c-15.1,2.4-30.4,3.5-45.6,3.4c-28.1,0.5-56-4.3-82.3-14.2c-45.7-17-81.1-54-96.2-100.4
	c-8.5-24.8-12.7-50.9-12.4-77.2c-0.3-31.4,5.2-62.5,16.2-91.9c9.9-26.7,25.1-51.1,44.6-71.8c18.9-19.8,41.6-35.6,66.8-46.4
	c26.6-11.3,55.2-17,84.1-16.7c25.7-0.3,51.4,3.3,76.1,10.5c21.7,6.3,41.8,16.9,59.3,31.2c16.7,14.3,29.7,32.2,38.2,52.5
	c9.5,23.6,14.2,48.9,13.7,74.3c0.3,20.2-1.9,40.3-6.7,59.9c-3.8,14.5-9.8,28.2-17.8,40.8c-6.2,9.8-14.7,17.9-24.8,23.5
	c-8.7,4.7-18.5,7.2-28.4,7.4c-11.3,1.3-21.5-6.8-22.8-18.2c-0.2-1.9-0.2-3.8,0.1-5.7c-0.2-2.7,0-5.3,0.5-7.9l32.2-184.4h-57.8
	c-0.8,5.3-1.8,10.9-3.1,16.7c-1.5,5.5-2.5,11.1-3.1,16.7c-7.4-12.6-18-23.1-30.7-30.4c-11.9-6.3-25.2-9.5-38.7-9.4
	c-18.5-0.2-36.8,4-53.4,12.2c-16.2,8-30.4,19.6-41.5,33.8C149,185.5,139.8,203,134,221.6c-6.6,20.9-9.8,42.6-9.5,64.5
	c-0.1,14,1.8,28,5.7,41.4c3.3,12.6,9.3,24.4,17.5,34.6c8.1,9.9,18.2,18,29.7,23.5c13.2,6.1,27.7,9.1,42.3,8.8
	c16.2,0.2,32.1-3.4,46.7-10.5c16.2-9.1,29.8-22.1,39.7-37.7c1.3,14.7,10,27.8,23,34.9c14.6,6.7,30.6,10,46.7,9.4
	c35-0.2,68.2-15.8,90.8-42.6c13.6-16.1,23.9-34.9,30.2-55c8-25.7,11.9-52.5,11.3-79.4c0.5-31.4-5.6-62.5-18.1-91.3
	c-11.5-25.7-28.7-48.5-50.3-66.7c-22.3-18.4-47.9-32.3-75.6-40.8c-30.5-9.5-62.4-14.2-94.4-13.9c-32.1,0.2-63.8,6.1-93.9,17.3
	c-31.6,11.5-60.6,29.1-85.4,51.9C64.1,94.1,43,123.5,28.3,156.1C11.4,193.7,3.2,234.6,4.1,275.8c-0.3,32.2,5.2,64.2,16.2,94.5
	c10.1,27.9,26.1,53.4,46.9,74.6c21.4,21.5,47.2,38.1,75.6,48.8c33,12.2,68,18.2,103.2,17.6c23.1,0.2,46.1-2.3,68.6-7.4
	c19.2-4.4,37.7-11.1,55.2-20.1c15.3-7.9,29.3-17.9,41.8-29.8c11.2-10.8,20.6-23.2,27.8-36.9H378L378,416.9z"/>
</svg>
