<?xml version="1.0" encoding="utf-8"?>
<!-- Generator: Adobe Illustrator 22.1.0, SVG Export Plug-In . SVG Version: 6.00 Build 0)  -->
<svg version="1.1" id="Layer_1" xmlns="http://www.w3.org/2000/svg" xmlns:xlink="http://www.w3.org/1999/xlink" x="0px" y="0px"
	 viewBox="0 0 512 512" style="enable-background:new 0 0 512 512;" xml:space="preserve">
<style type="text/css">
	.st0{fill:#050505;}
</style>
<path id="in" class="st0" d="M116.3,505.6V173.8H6.8v331.8H116.3z M61.6,128.5c33.8-0.2,61-27.8,60.8-61.6
	c-0.2-33.8-27.8-61-61.6-60.8C27,6.3-0.2,33.9,0,67.7c0.2,33.5,27.3,60.6,60.8,60.8H61.6z M177,505.6h109.8V320.3
	c-0.4-9.1,0.8-18.1,3.7-26.8c8.3-24.1,30.8-40.2,56.2-40.4c39.6,0,55.5,30.2,55.5,74.8v177.6H512V315.3
	c0-101.8-54.3-149.2-126.4-149.2c-41-1.6-79.5,19.9-99.6,55.7h0.7v-48.1H177C178.5,204.8,177,505.6,177,505.6L177,505.6L177,505.6z"
	/>
</svg>
