<?xml version="1.0" encoding="utf-8"?>
<!-- Generator: Adobe Illustrator 22.1.0, SVG Export Plug-In . SVG Version: 6.00 Build 0)  -->
<svg version="1.1" id="Layer_1" xmlns="http://www.w3.org/2000/svg" xmlns:xlink="http://www.w3.org/1999/xlink" x="0px" y="0px"
	 viewBox="0 0 120 120" style="enable-background:new 0 0 120 120;" xml:space="preserve">
<style type="text/css">
	.st0{fill:#807F7F;}
</style>
<g>
	<path id="Shape_2_copy_22" class="st0" d="M80.3,90.7h35.2l-18-17.9l-18,17.9H80.3z M80.3,47.6h35.2l-18-17.9l-18,17.9H80.3
		L80.3,47.6z M40.8,69.1H76L58,51.3L40,69.1H40.8L40.8,69.1z"/>
	<path class="st0" d="M61.7,91.6H38.8l8.9-8.8h-8.9l11.4-11.3l9.4,9.3l9.4-9.3l11.4,11.3H57.5l0,0h-4.8L61.7,91.6z M43.7,89.6h13.2
		l-6.6-6.5L43.7,89.6z M50.2,74.3l-6.6,6.5h6l0.6-0.6l0.6,0.6h6L50.2,74.3z M69.1,74.3l-6.6,6.5h13.2L69.1,74.3z M77.2,70.1l8.9-8.8
		h-8.9L88.7,50l9.4,9.3l9.4-9.3l11.4,11.3H96l0,0h-4.8l8.9,8.8H77.2z M88.6,61.5L82,68.1h13.2L88.6,61.5z M88.6,52.8L82,59.3h6
		l0.6-0.6l0.6,0.6h6L88.6,52.8z M107.5,52.8l-6.6,6.5h13.2L107.5,52.8z M1.1,69l8.9-8.8H1.1l11.5-11.3l9.4,9.3l9.4-9.3l11.4,11.3
		H19.9l0,0h-4.8L24,69H1.1z M12.5,60.4l-6.6,6.5h13.2L12.5,60.4z M12.5,51.7l-6.6,6.5h6l0.6-0.6l0.6,0.6h6L12.5,51.7z M31.4,51.7
		l-6.6,6.5H38L31.4,51.7z M41.7,48.5h-2.9l8.9-8.8h-8.9l11.4-11.3l9.4,9.3l9.4-9.3l11.4,11.3H52.8l8.9,8.8H41.7z M50.2,40l-6.5,6.5
		h13.2L50.2,40z M62.5,37.7h13.2l-6.6-6.5L62.5,37.7z M50.8,37.7h6l-6.6-6.5l-6.6,6.5h6l0.6-0.6L50.8,37.7z"/>
</g>
</svg>
