<?xml version="1.0" encoding="utf-8"?>
<!-- Generator: Adobe Illustrator 22.1.0, SVG Export Plug-In . SVG Version: 6.00 Build 0)  -->
<svg version="1.1" id="Layer_1" xmlns="http://www.w3.org/2000/svg" xmlns:xlink="http://www.w3.org/1999/xlink" x="0px" y="0px"
	 viewBox="0 0 120 120" style="enable-background:new 0 0 120 120;" xml:space="preserve">
<style type="text/css">
	.st0{fill:#807F7F;}
</style>
<g>
	<polygon class="st0" points="86.5,30 86.5,33 88.5,33 88.5,92 36.5,92 36.5,90 33.5,90 33.5,95 91.5,95 91.5,30 	"/>
</g>
<path class="st0" d="M28.5,25v65h36.6l21.4-22.4V25H28.5z M31.5,87V28h52v38.4l-0.1,0.1H64v20.3L63.9,87H31.5z"/>
<path id="Shape_2_copy_18" class="st0" d="M40.2,48.3l9.3-9.8H40v10L40.2,48.3z M49.7,48.3l9.3-9.8h-9.5v10L49.7,48.3z M40.2,58.3
	l9.3-9.8H40v10L40.2,58.3z"/>
</svg>
