<?xml version="1.0" encoding="utf-8"?>
<!-- Generator: Adobe Illustrator 22.1.0, SVG Export Plug-In . SVG Version: 6.00 Build 0)  -->
<svg version="1.1" id="ico" xmlns="http://www.w3.org/2000/svg" xmlns:xlink="http://www.w3.org/1999/xlink" x="0px" y="0px"
	 viewBox="0 0 120 120" style="enable-background:new 0 0 120 120;" xml:space="preserve">
<style type="text/css">
	.st0{fill:#807F7F;}
</style>
<g>
	<path class="st0" d="M81.2,32.5V40c0.5-0.3,0.9-0.6,1.3-1c0.9,1.3,1.7,2.7,2.4,4.1h3.5C86.7,39.1,84.2,35.5,81.2,32.5z"/>
	<path class="st0" d="M86.1,46c0.3,0.8,0.6,1.7,0.8,2.6l0,0c-0.1,0.7-1.4,4.6-11.2,6.9c0-4.4-0.4-8.7-1.3-13
		c1.3-0.3,2.5-0.6,3.8-1.1V38c-1.5,0.7-3,1.2-4.5,1.5c-1.2-4.5-3.5-8.7-6.7-12c4.2,1.4,8,3.7,11.3,6.7V30c-3.4-2.7-7.4-4.7-11.9-5.9
		c-2.7-0.7-5.5-1.1-8.3-1.2h-0.9C38.6,23,23.8,38.2,24.1,56.7c0,2.8,0.4,5.6,1.2,8.3c0.1,0.3,0.1,0.6,0.3,0.9c0.9,3,2.2,5.8,3.9,8.4
		h3.8c-0.6-0.8-1.1-1.6-1.6-2.4l0,0c3.3,1.6,6.9,2.7,10.5,3.2c1.2,3.8,3.3,7.2,6.1,10c-2.4-0.8-4.6-1.8-6.7-3.1v3.7
		c4.7,2.5,10,4,15.6,4.1l0,0H58l0,0C72.6,89.6,85.4,80,89.6,66c0.1-0.3,0.2-0.6,0.3-0.9c1.7-6.5,1.5-13-0.4-18.9h-3.4V46z M32.7,39
		c0.7,0.7,1.5,1.2,2.4,1.7c1.8,0.9,3.7,1.5,5.6,1.9c-0.8,4.3-1.3,8.6-1.3,13c-9.8-2.3-11.1-6.2-11.2-6.9
		C29.1,45.2,30.6,41.9,32.7,39z M28.5,64.8c0-0.2-0.1-0.3-0.1-0.5l0,0c-0.7-2.6-1.1-5.3-1.1-8c0-1,0.1-2,0.2-3
		c0.7,0.7,1.4,1.3,2.2,1.8c3,1.8,6.4,3.1,9.8,3.8c0.1,4.3,0.6,8.6,1.6,12.8C31.3,69.6,29,66.1,28.5,64.8z M41.5,39.4
		c-1.4-0.3-2.7-0.7-4-1.2c-1.1-0.4-2.1-1-2.9-1.8c3.6-4.2,8.3-7.3,13.6-9l0,0C45,30.8,42.6,34.9,41.5,39.4z M56,86.2
		c-2.1-0.7-4-1.8-5.5-3.4c-2-2.1-3.6-4.5-4.7-7.3c3.1,0.4,6.5,0.5,10.2,0.6l0,0V86.2z M56,72.9c-3.8,0-7.6-0.3-11.4-0.8
		c-1.1-4.2-1.8-8.5-1.9-12.8l0,0c4.4,0.7,8.8,1,13.3,1C56,60.3,56,72.9,56,72.9z M56,57.2c-4.5,0-8.9-0.4-13.3-1
		c0-4.4,0.4-8.7,1.2-13c4,0.6,8,0.9,12.1,0.9l0,0V57.2z M56,40.8c-3.8,0-7.6-0.3-11.3-0.8c1.6-5.2,3.8-8.4,5.8-10.3l0,0
		c1.5-1.5,3.4-2.7,5.5-3.4V40.8z M59.2,26.3c2.1,0.7,4,1.8,5.5,3.4c2,2,4.2,5.1,5.8,10.3c-3.7,0.5-7.5,0.8-11.3,0.8V26.3z M59.2,44
		c4,0,8.1-0.3,12.1-0.9c0.9,4.3,1.3,8.6,1.2,13c-4.4,0.7-8.9,1-13.3,1C59.2,57.1,59.2,44,59.2,44z M72.4,59.4
		c-0.1,4.3-0.7,8.6-1.9,12.8c-3.8,0.5-7.6,0.7-11.4,0.8V60.4C63.6,60.4,68,60,72.4,59.4z M59.2,86.2v-10c3.7,0,7.1-0.2,10.2-0.6
		c-1.1,2.7-2.6,5.2-4.7,7.3l0,0C63.1,84.3,61.2,85.5,59.2,86.2z M66.9,85.1c2.8-2.8,4.9-6.3,6.1-10c3.7-0.5,7.2-1.6,10.5-3.2
		C79.8,78.1,73.9,82.8,66.9,85.1z M86.6,64.9c-0.7,1.3-1.7,2.4-3,3.2c-2.9,1.8-6.2,2.9-9.6,3.5c1-4.2,1.5-8.5,1.6-12.8
		c3.5-0.7,6.8-1.9,9.8-3.8c0.8-0.5,1.6-1.1,2.2-1.8c0.1,1,0.1,2,0.2,3C87.9,59.2,87.4,62.1,86.6,64.9z"/>
	<path class="st0" d="M38.6,83.8v-3.9c-1-0.8-1.9-1.7-2.8-2.6h-4.2C33.5,79.8,35.9,82,38.6,83.8z"/>
</g>
<g>
	<polygon class="st0" points="105.3,43 81.2,18.9 81.2,43 	"/>
	<polygon class="st0" points="38.6,77.2 14.7,77.2 38.6,101.1 	"/>
</g>
<path id="Shape_2_copy_6" class="st0" d="M93.3,79.4L104,67.7H93v12L93.3,79.4z M24.8,33.4L14.1,21.7h11v12L24.8,33.4z"/>
</svg>
