<?xml version="1.0" encoding="utf-8"?>
<!-- Generator: Adobe Illustrator 22.1.0, SVG Export Plug-In . SVG Version: 6.00 Build 0)  -->
<svg version="1.1" id="ico" xmlns="http://www.w3.org/2000/svg" xmlns:xlink="http://www.w3.org/1999/xlink" x="0px" y="0px"
	 viewBox="0 0 120 120" style="enable-background:new 0 0 120 120;" xml:space="preserve">
<style type="text/css">
	.st0{fill:#807F7F;}
</style>
<g>
	<g>
		<path class="st0" d="M88.1,73.4c-0.8-4.6-4.2-8.4-8.7-9.7c-2.8-0.9-5.8-1.5-8.8-1.9c-1-0.1-1.9-0.8-2.2-1.8
			c4.5-4.9,7.2-12.9,7.2-18c-0.1-8.6-7.1-15.5-15.6-15.5h-0.1c-8.5,0.1-15.4,7-15.5,15.5c0,5,2.7,12.9,7.1,17.8
			c-0.3,1-1.2,1.8-2.2,2c-2.9,0.4-5.7,1.1-8.5,1.9c-4.6,1.3-7.9,5.1-8.8,9.7c-1.6,7.4,1.1,15.4,1.2,15.7c0.1,0.3,0.4,0.5,0.7,0.6
			c8.6,2.5,17.4,3.7,26.4,3.7c8.8,0,17.5-1.2,25.9-3.7c0.3-0.1,0.6-0.3,0.7-0.6C86.9,88.8,89.5,80.8,88.1,73.4z M60,29.6
			c5.3,0,10,3.3,11.8,8.4c-3.3,1.4-7,1.2-10.2-0.4c-4.2-2.3-9.3-2.2-13.4,0.2C50,32.9,54.7,29.6,60,29.6z M47.6,42
			c-0.1-0.4-0.1-0.8,0-1.3l0,0c4.8-3.6,9.4-3.4,13.1-1.4c3.6,2,7.9,2.2,11.6,0.6c0.1,0.7,0.2,1.3,0.2,2C72.5,49.1,66.7,61,60,61
			S47.6,49.2,47.6,42z M54.3,61.1c1.6,1.3,3.6,2,5.7,2.1c2,0,3.9-0.7,5.5-2c0.6,1.5,1.8,2.6,3.3,3.2c-2.5,1.9-5.6,2.9-8.8,2.9
			s-6.4-1.1-8.9-3C52.6,63.7,53.7,62.5,54.3,61.1z M84.1,87.2L84.1,87.2c-1.5,0.4-3.1,0.8-4.6,1.1v-4.8h-2v5.2
			c-11.2,2.2-22.8,2.3-34,0.2v-5.4h-2v5c-1.9-0.4-3.8-0.9-5.6-1.4c0,0-2.1-6.9-0.8-13.2c0.6-3.5,3.2-6.3,6.6-7.2
			c2.3-0.7,4.7-1.2,7.1-1.7c3.1,2.9,7.2,4.6,11.4,4.5c4.2,0,8.3-1.6,11.3-4.5c2.3,0.3,7.1,1.7,7.1,1.7c3.4,1,5.9,3.8,6.6,7.2
			C85.7,78.4,85.4,82.9,84.1,87.2z"/>
	</g>
	<path id="Shape_2_copy_14" class="st0" d="M74.3,83.3l-7.8-7.8h8v8L74.3,83.3z"/>
</g>
</svg>
