<?xml version="1.0" encoding="utf-8"?>
<!-- Generator: Adobe Illustrator 22.1.0, SVG Export Plug-In . SVG Version: 6.00 Build 0)  -->
<svg version="1.1" id="Layer_1" xmlns="http://www.w3.org/2000/svg" xmlns:xlink="http://www.w3.org/1999/xlink" x="0px" y="0px"
	 viewBox="0 0 512 512" style="enable-background:new 0 0 512 512;" xml:space="preserve">
<path id="MOUSE" d="M256,0C166.7-0.7,93.6,70.9,92.6,160.2v191.6C94.4,442,169,513.7,259.2,512c87.8-1.7,158.5-72.4,160.2-160.2
	V160.2C418.4,70.9,345.3-0.8,256,0z M256,489.7c-76.9,0.7-139.8-61-140.7-137.9V160.2c1.6-77.7,65.9-139.4,143.6-137.7
	c75.4,1.6,136.1,62.3,137.7,137.7v191.6C395.8,428.7,332.8,490.3,256,489.7z M256,317.9L256,317.9c-12.3-0.1-22.4,9.8-22.5,22.1
	v52.8c0.1,12.3,10.2,22.2,22.5,22.1l0,0c12.3,0.1,22.4-9.8,22.5-22.1V340C278.4,327.6,268.3,317.8,256,317.9L256,317.9z"/>
</svg>
