<?xml version="1.0" encoding="utf-8"?>
<!-- Generator: Adobe Illustrator 22.1.0, SVG Export Plug-In . SVG Version: 6.00 Build 0)  -->
<svg version="1.1" id="Layer_1" xmlns="http://www.w3.org/2000/svg" xmlns:xlink="http://www.w3.org/1999/xlink" x="0px" y="0px"
	 viewBox="0 0 512 512" style="enable-background:new 0 0 512 512;" xml:space="preserve">
<path id="search" d="M502.7,459.6L384.5,341.1c70.5-94.5,51.1-228.2-43.3-298.7C246.8-28.1,113-8.7,42.5,85.7S-8.6,313.9,85.8,384.5
	c36.9,27.5,81.6,42.4,127.7,42.4c46.1,0.2,90.9-14.8,127.7-42.5l118.5,118.4c5.5,6,13.4,9.3,21.5,9.3c16.9,0.1,30.6-13.4,30.8-30.3
	C512,473.4,508.6,465.4,502.7,459.6z M61.9,213.5c0-83.8,67.9-151.8,151.7-151.8c83.8,0,151.8,67.9,151.8,151.7
	c0,83.8-67.9,151.8-151.7,151.8c-0.1,0-0.1,0-0.2,0C129.8,365.3,62,297.6,61.9,214C61.9,213.8,61.9,213.6,61.9,213.5L61.9,213.5z"/>
</svg>
