<?xml version="1.0" encoding="utf-8"?>
<!-- Generator: Adobe Illustrator 22.1.0, SVG Export Plug-In . SVG Version: 6.00 Build 0)  -->
<svg version="1.1" id="Layer_1" xmlns="http://www.w3.org/2000/svg" xmlns:xlink="http://www.w3.org/1999/xlink" x="0px" y="0px"
	 viewBox="0 0 512 512" style="enable-background:new 0 0 512 512;" xml:space="preserve">
<path d="M447.5,206.3v-9.2c3-105.8-80.2-194-186-197c-105.8-3-194,80.2-197,186c-0.1,3.7-0.1,7.4,0,11v9.2
	c-20.8,5.5-35.2,24.3-35.1,45.8v65.8c-0.3,25.5,20,46.5,45.5,46.9h25.6c25.5-0.4,45.9-21.3,45.5-46.8c0,0,0,0,0-0.1v-65.8
	c0-21.4-14.4-40.2-35.1-45.8v-9.2C108.7,117,171.8,50.2,251.8,47.9c80.1-2.3,146.9,60.8,149.2,140.9c0.1,2.8,0.1,5.5,0,8.3v9.2
	c-20.8,5.5-35.2,24.3-35.1,45.8v65.8c-0.3,21.9,14.7,40.9,36.1,45.8c-12.7,46-50.5,80.7-97.3,89.5c-1.6-11.6-11.4-20.2-23.1-20.5
	H231c-13.2,0.1-23.7,10.8-23.6,24c0,0.1,0,0.2,0,0.3v30.7c-0.3,13.2,10.2,24,23.4,24.3c0.1,0,0.2,0,0.3,0h50.6
	c12.3-0.3,22.3-9.9,23.1-22.1c65.9-10.2,118.8-59.9,133-125.1c25.2-0.9,45.2-21.7,44.9-46.9v-65.8
	C483.2,230.4,468.5,211.3,447.5,206.3z"/>
</svg>
