<?xml version="1.0" encoding="utf-8"?>
<!-- Generator: Adobe Illustrator 22.1.0, SVG Export Plug-In . SVG Version: 6.00 Build 0)  -->
<svg version="1.1" id="Layer_1" xmlns="http://www.w3.org/2000/svg" xmlns:xlink="http://www.w3.org/1999/xlink" x="0px" y="0px"
	 viewBox="0 0 512 512" style="enable-background:new 0 0 512 512;" xml:space="preserve">
<style type="text/css">
	.st0{fill:#050505;}
</style>
<path id="tw" class="st0" d="M512,96.5c-19.1,8.5-39.4,14.2-60.2,16.7c21.9-13.3,38.3-34.1,46.1-58.5
	c-20.6,12.4-43.1,21.1-66.7,25.7C391.8,38,325.4,35.6,283,75c-21.6,20-33.7,48.2-33.5,77.7c0,8.1,0.8,16.1,2.6,24
	C167.7,172.3,89,132.2,35.8,66.5c-9.5,16-14.4,34.3-14.4,53c0,35.3,17.5,68.2,46.7,87.9c-16.7-0.6-33-5.2-47.6-13.3v1.3
	c-0.1,50.2,35.1,93.5,84.3,103.6c-9,2.4-18.3,3.7-27.7,3.6c-6.6,0-13.2-0.6-19.7-1.9c13.6,43,53.1,72.5,98.2,73.3
	c-37.2,29.3-83.2,45.3-130.6,45.2c-8.4,0-16.8-0.5-25.1-1.5c138.7,89.1,323.4,49,412.5-89.7c31.2-48.6,47.7-105.3,47.4-163
	c0-4.7-0.2-9.2-0.2-13.7C480.2,136.2,497.9,117.7,512,96.5z"/>
</svg>
