<?xml version="1.0" encoding="utf-8"?>
<!-- Generator: Adobe Illustrator 22.1.0, SVG Export Plug-In . SVG Version: 6.00 Build 0)  -->
<svg version="1.1" id="Layer_1" xmlns="http://www.w3.org/2000/svg" xmlns:xlink="http://www.w3.org/1999/xlink" x="0px" y="0px"
	 viewBox="0 0 512 512" style="enable-background:new 0 0 512 512;" xml:space="preserve">
<style type="text/css">
	.st0{fill:#151514;}
</style>
<path class="st0" d="M512,256.1C511.9,397.5,397.3,512,255.9,512C114.5,511.9,0,397.2,0,255.9C0.1,114.6,114.6,0.1,255.9,0
	C397.3,0,512,114.7,512,256.1 M256.4,316.4c13.9,14.1,33,21.8,52.8,21.3c19.8,0.4,38.8-7.3,52.8-21.3c13.9-13.2,21.7-31.6,21.8-50.8
	v-72.3h-43.1v72.3c0.2,8.2-3.2,16-9.2,21.5c-3,2.8-6.5,5.1-10.3,6.7c-3.9,1.6-8.1,2.4-12.3,2.3c-4.3,0.1-8.6-0.7-12.6-2.3
	c-3.7-1.6-7.1-3.9-10-6.7c-6.3-5.3-9.8-13.3-9.5-21.5v-71.8h-42.8v71c-0.4,8.2-3.7,16-9.2,22c-5.5,6.2-13.5,9.6-21.8,9.2
	c-8.6,0.1-16.8-3.1-23.1-9c-5.8-5.1-9.1-12.5-9-20.3v-73.6H128v72.3c-0.1,19.2,7.8,37.6,21.8,50.8c14.2,14,33.4,21.7,53.3,21.3
	c19.8,0.4,38.9-7.3,52.8-21.3l0.3-0.3L256.4,316.4z"/>
</svg>
