<?xml version="1.0" encoding="utf-8"?>
<!-- Generator: Adobe Illustrator 22.1.0, SVG Export Plug-In . SVG Version: 6.00 Build 0)  -->
<svg version="1.1" id="Layer_1" xmlns="http://www.w3.org/2000/svg" xmlns:xlink="http://www.w3.org/1999/xlink" x="0px" y="0px"
	 viewBox="0 0 512 512" style="enable-background:new 0 0 512 512;" xml:space="preserve">
<title>Ecommerce RTE</title>
<g>
	<path d="M474.4,389.7C499,349.4,512.1,303.2,512,256l0,0l0,0c0.1-47.2-13-93.4-37.6-133.6l-0.1-0.2
		C400.3,1.6,242.6-36.1,122.1,37.8c-34.4,21.1-63.2,50-84.3,84.3l-0.1,0.2c-50.2,82-50.2,185.3,0,267.3l0.1,0.2
		c73.9,120.5,231.6,158.3,352.1,84.3c34.4-21.1,63.2-50,84.3-84.3L474.4,389.7z M288.7,468.1c-4.9,4.7-10.5,8.6-16.6,11.5
		c-10.2,4.8-22,4.8-32.2,0c-11.7-6-21.6-14.7-29-25.6c-15.1-21.8-26.3-46.1-33.1-71.7c26-1.6,52.1-2.4,78.2-2.4
		c26.1,0,52.2,0.8,78.2,2.4c-3.8,13.2-8.4,26.1-14,38.6C312.8,438.5,302.1,454.6,288.7,468.1L288.7,468.1z M29.3,270.4h103.3
		c0.7,28.8,3.8,57.5,9.3,85.8c-28.2,2.5-56.4,5.9-84.5,10.2C40.9,336.9,31.3,304.1,29.3,270.4z M57.4,145.6
		c28.1,4.4,56.2,7.8,84.5,10.2c-5.6,28.3-8.7,57-9.4,85.8H29.3C31.3,207.9,40.9,175.1,57.4,145.6L57.4,145.6z M223.3,43.9
		c4.9-4.7,10.5-8.6,16.6-11.5c10.2-4.8,22-4.8,32.2,0c11.7,6,21.6,14.7,29,25.6c15.1,21.8,26.3,46.1,33.1,71.7
		c-26,1.6-52.1,2.4-78.2,2.4s-52.2-0.8-78.2-2.4c3.8-13.2,8.4-26.1,14-38.6C199.2,73.5,209.9,57.4,223.3,43.9z M482.7,241.6H379.5
		c-0.7-28.8-3.8-57.5-9.3-85.8c28.2-2.5,56.4-5.9,84.5-10.2C471.1,175.1,480.7,207.9,482.7,241.6z M170.8,353.9
		c-5.6-27.5-8.8-55.5-9.5-83.6h189.4c-0.7,28.1-3.9,56-9.5,83.6c-28.4-1.9-56.8-2.8-85.2-2.8C227.6,351.1,199.2,352,170.8,353.9z
		 M341.2,158.1c5.6,27.5,8.8,55.5,9.5,83.6H161.3c0.7-28.1,3.9-56,9.5-83.6c28.4,1.9,56.8,2.8,85.2,2.9
		C284.4,160.9,312.8,160,341.2,158.1L341.2,158.1z M379.5,270.4h103.3c-2.1,33.7-11.7,66.5-28.1,96c-28.1-4.4-56.2-7.8-84.5-10.2
		C375.7,327.9,378.8,299.2,379.5,270.4z M437.4,119.1c-24.5,3.5-49.2,6.3-73.9,8.4c-4.4-16.5-10.2-32.7-17.1-48.3
		c-6.4-14.4-14.3-28-23.8-40.5C368.4,52.7,408.5,80.9,437.4,119.1z M95.3,95.3c26.3-26.3,58.6-45.7,94.1-56.6
		c-0.5,0.7-1.1,1.4-1.6,2.1c-18.3,26.3-31.6,55.7-39.2,86.8c-24.7-2.1-49.3-4.9-73.9-8.4C81,110.7,87.9,102.8,95.3,95.3z
		 M74.6,392.9c24.5-3.5,49.2-6.3,73.9-8.4c4.4,16.5,10.2,32.7,17.1,48.3c6.4,14.4,14.3,28,23.8,40.5
		C143.6,459.3,103.5,431.1,74.6,392.9L74.6,392.9z M416.7,416.7c-26.3,26.3-58.6,45.7-94.1,56.6c0.5-0.7,1.1-1.4,1.6-2.1
		c18.3-26.3,31.6-55.7,39.2-86.8c24.7,2.1,49.3,4.9,73.9,8.4C431,401.3,424.1,409.2,416.7,416.7L416.7,416.7z"/>
</g>
</svg>
