<?xml version="1.0" encoding="utf-8"?>
<!-- Generator: Adobe Illustrator 22.1.0, SVG Export Plug-In . SVG Version: 6.00 Build 0)  -->
<svg version="1.1" id="Layer_1" xmlns="http://www.w3.org/2000/svg" xmlns:xlink="http://www.w3.org/1999/xlink" x="0px" y="0px"
	 viewBox="0 0 512 512" style="enable-background:new 0 0 512 512;" xml:space="preserve">
<style type="text/css">
	.st0{fill:#050505;}
</style>
<g id="Isolation_Mode">
	<path class="st0" d="M507,153.1c-2.4-18.5-9.5-36.1-20.4-51.1c-13.5-13.8-32-21.6-51.3-21.8c-71.6-5.2-179-5.2-179-5.2h-0.4
		c0,0-107.5,0-179,5.2c-19.3,0.2-37.8,8-51.3,21.8c-11,15.1-18,32.6-20.4,51.1c-3.1,27.7-4.8,55.5-5,83.3v39
		c0.2,27.8,1.9,55.6,5,83.3c2.4,18.5,9.5,36.1,20.4,51.1C41,423.7,61,431.5,81.8,431.8C122.9,435.7,256,437,256,437
		s107.6-0.2,179.2-5.4c19.3-0.2,37.8-8,51.3-21.8c11-15.1,18-32.6,20.4-51.1c3.1-27.7,4.8-55.5,5-83.3v-39
		C511.8,208.6,510.1,180.8,507,153.1z M203,323.2V178.8L341,251.1L203,323.2z"/>
</g>
</svg>
