<?xml version="1.0" encoding="utf-8"?>
<!-- Generator: Adobe Illustrator 22.1.0, SVG Export Plug-In . SVG Version: 6.00 Build 0)  -->
<svg version="1.1" xmlns="http://www.w3.org/2000/svg" xmlns:xlink="http://www.w3.org/1999/xlink" x="0px" y="0px"
	 viewBox="0 0 1920 230" style="enable-background:new 0 0 1920 230;" xml:space="preserve">
<style type="text/css">
	.st0{display:none;}
	.st1{display:inline;}
	.st2{fill:#FFFFFF;}
</style>
<g id="Layer_2" class="st0">
	<rect class="st1" width="1920" height="230"/>
</g>
<g id="Layer_1">
	<polygon class="st2" points="464.3,137.3 503.9,176.9 543.2,137.7 	"/>
	<path class="st2" d="M1797.5,115.4l-57.8-57.3h57.8V115.4z M1742.1,59.1l54.4,53.9V59.1H1742.1z"/>
	<path class="st2" d="M1598.4,229.5v-57.8h57.3L1598.4,229.5z M1599.4,172.6V227l53.9-54.4H1599.4z"/>
	<path class="st2" d="M986.4,61.6L928.5,4.3h57.8V61.6z M931,5.3l54.4,53.9V5.3H931z"/>
	<polygon class="st2" points="805.9,230 861.5,230 861.5,173.9 	"/>
	<path class="st2" d="M121,100.8H63.2V43.6L121,100.8z M64.2,99.8h54.4L64.2,46V99.8z"/>
	<path class="st2" d="M118.6,230l56.6-56.6l56.6,56.6H118.6z M175.1,175.6l-52.4,52.8l105.5-0.1L175.1,175.6z"/>
	<polygon class="st2" points="1800.9,173.4 1744.3,230 1856.8,229.4 	"/>
	<path class="st2" d="M493.2,185.7H436v-57.8L493.2,185.7z M437,184.7h53.9L437,130.3V184.7z"/>
	<polygon class="st2" points="154.3,137.9 245.5,230 245.5,137.9 	"/>
	<path class="st2" d="M662.3,156.5l-40.5-40.5l40.9-40.9L662.3,156.5z M623.2,116.1l38.1,38.1l0.4-76.6L623.2,116.1z"/>
	<path class="st2" d="M1128.2,156.1l-40.9-40.9l81.4,0.4L1128.2,156.1z M1089.7,116.2l38.5,38.5l38.1-38.1L1089.7,116.2z"/>
	<polygon class="st2" points="1178,115 1137.5,155.5 1218.8,155.9 	"/>
	<path class="st2" d="M1395.9,228.7l-64.5-64.5l65.1-65.1L1395.9,228.7z M1332.9,164.2l62.1,62.1l0.6-124.8L1332.9,164.2z"/>
	<path class="st2" d="M590.2,133.9L525,68.8h129.6L590.2,133.9z M527.5,69.8l62.7,62.7l62.1-62.7H527.5z"/>
	<polygon class="st2" points="1345.2,189.6 1305.2,230 1385.6,230 	"/>
	<path class="st2" d="M870.3,214.1l0.8-57.3l57.8,0.8L870.3,214.1z M872,157.9l-0.7,53.9l55.1-53.1L872,157.9z"/>
</g>
</svg>
