<?xml version="1.0" encoding="utf-8"?>
<!-- Generator: Adobe Illustrator 22.1.0, SVG Export Plug-In . SVG Version: 6.00 Build 0)  -->
<svg version="1.1" id="Layer_1" xmlns="http://www.w3.org/2000/svg" xmlns:xlink="http://www.w3.org/1999/xlink" x="0px" y="0px"
	 viewBox="0 0 200 63" style="enable-background:new 0 0 200 63;" xml:space="preserve">
<style type="text/css">
	.st0{fill:#B4BABE;}
	.st1{fill:#E10026;}
</style>
<polygon class="st0" points="56.7,57.7 56.7,55 55.8,55 55.8,61.6 56.7,61.6 56.7,58.5 59.8,58.5 59.8,61.6 60.7,61.6 60.7,55 
	59.8,55 59.8,57.7 "/>
<path class="st0" d="M66.3,54.9c-1.9,0-3.5,1.6-3.5,3.5c0,2,1.6,3.5,3.5,3.5c1.9,0,3.5-1.5,3.5-3.5C69.7,56.4,68.1,54.9,66.3,54.9
	 M66.3,61c-1.5,0-2.7-1.1-2.7-2.7c0-1.5,1.1-2.7,2.7-2.7c1.6,0,2.7,1.2,2.7,2.7C68.9,59.8,67.7,61,66.3,61"/>
<path class="st0" d="M66.3,54.9c-1.9,0-3.5,1.6-3.5,3.5c0,2,1.6,3.5,3.5,3.5c1.9,0,3.5-1.5,3.5-3.5C69.7,56.4,68.1,54.9,66.3,54.9
	 M66.3,61c-1.5,0-2.7-1.1-2.7-2.7c0-1.5,1.1-2.7,2.7-2.7c1.6,0,2.7,1.2,2.7,2.7C68.9,59.8,67.7,61,66.3,61"/>
<polygon class="st0" points="73.6,55.7 75.2,55.7 75.2,55 71.2,55 71.2,55.7 72.8,55.7 72.8,61.6 73.6,61.6 "/>
<path class="st0" d="M79.3,58.8c1-0.1,1.6-0.9,1.6-1.8c0-0.6-0.3-1.3-0.9-1.6S78.9,55,78.2,55h-1v6.7h0.9v-2.8h0.3l2,2.8h1
	L79.3,58.8z M78.1,55.7h0.3c0.8,0,1.8,0.2,1.8,1.2c0,1-1,1.2-1.7,1.2h-0.3L78.1,55.7L78.1,55.7z"/>
<path class="st0" d="M79.3,58.8c1-0.1,1.6-0.9,1.6-1.8c0-0.6-0.3-1.3-0.9-1.6S78.9,55,78.2,55h-1v6.7h0.9v-2.8h0.3l2,2.8h1
	L79.3,58.8z M78.1,55.7h0.3c0.8,0,1.8,0.2,1.8,1.2c0,1-1,1.2-1.7,1.2h-0.3L78.1,55.7L78.1,55.7z"/>
<path class="st0" d="M83.2,55v4.2c0,1.5,0.9,2.6,2.4,2.6c1.6,0,2.4-1.1,2.4-2.6V55h-0.9v3.9c0,1-0.3,2.1-1.6,2.1
	c-1.3,0-1.6-1-1.6-2.1V55C84.1,55,83.2,55,83.2,55z"/>
<polygon class="st0" points="90.5,61.6 91.4,61.6 91.4,56.7 96.3,61.9 96.3,55 95.5,55 95.5,59.9 90.5,54.7 "/>
<polygon class="st0" points="98.7,61.6 99.6,61.6 99.6,56.7 104.6,61.9 104.6,55 103.8,55 103.8,59.9 98.7,54.7 "/>
<polygon class="st0" points="107.1,61.6 110.7,61.6 110.7,60.9 107.9,60.9 107.9,58.4 110.6,58.4 110.6,57.6 107.9,57.6 107.9,55.7 
	110.7,55.7 110.7,55 107.1,55 "/>
<path class="st0" d="M115.1,58.8c1-0.1,1.6-0.9,1.6-1.8c0-0.6-0.3-1.3-0.9-1.6c-0.5-0.3-1.1-0.3-1.7-0.3h-1v6.7h0.9v-2.8h0.3l2,2.8
	h1L115.1,58.8z M113.9,55.7h0.3c0.8,0,1.8,0.2,1.8,1.2c0,1-1,1.2-1.7,1.2h-0.3L113.9,55.7L113.9,55.7z"/>
<path class="st0" d="M115.1,58.8c1-0.1,1.6-0.9,1.6-1.8c0-0.6-0.3-1.3-0.9-1.6c-0.5-0.3-1.1-0.3-1.7-0.3h-1v6.7h0.9v-2.8h0.3l2,2.8
	h1L115.1,58.8z M113.9,55.7h0.3c0.8,0,1.8,0.2,1.8,1.2c0,1-1,1.2-1.7,1.2h-0.3L113.9,55.7L113.9,55.7z"/>
<polygon class="st0" points="124.9,55.7 126.4,55.7 126.4,55 122.4,55 122.4,55.7 124,55.7 124,61.6 124.9,61.6 "/>
<polygon class="st0" points="128.4,61.6 132,61.6 132,60.9 129.3,60.9 129.3,58.4 131.9,58.4 131.9,57.6 129.3,57.6 129.3,55.7 
	132,55.7 132,55 128.4,55 "/>
<path class="st0" d="M139.2,55.3c-0.5-0.3-1.1-0.4-1.7-0.4c-2,0-3.6,1.6-3.6,3.5s1.6,3.4,3.5,3.4c0.6,0,1.2-0.2,1.7-0.4v-1
	c-0.5,0.4-1.1,0.7-1.7,0.7c-1.5,0-2.6-1.2-2.6-2.7c0-1.5,1.1-2.7,2.6-2.7c0.6,0,1.3,0.3,1.7,0.7V55.3z"/>
<polygon class="st0" points="142.3,57.7 142.3,55 141.5,55 141.5,61.6 142.3,61.6 142.3,58.5 145.5,58.5 145.5,61.6 146.3,61.6 
	146.3,55 145.5,55 145.5,57.7 "/>
<polygon class="st0" points="148.8,61.6 149.6,61.6 149.6,56.7 154.6,61.9 154.6,55 153.7,55 153.7,59.9 148.8,54.7 "/>
<path class="st0" d="M160.1,54.9c-1.9,0-3.5,1.6-3.5,3.5c0,2,1.6,3.5,3.5,3.5c1.9,0,3.5-1.5,3.5-3.5C163.6,56.4,162,54.9,160.1,54.9
	 M160.1,61c-1.5,0-2.7-1.1-2.7-2.7c0-1.5,1.1-2.7,2.7-2.7c1.6,0,2.7,1.2,2.7,2.7C162.7,59.8,161.5,61,160.1,61"/>
<path class="st0" d="M160.1,54.9c-1.9,0-3.5,1.6-3.5,3.5c0,2,1.6,3.5,3.5,3.5c1.9,0,3.5-1.5,3.5-3.5C163.6,56.4,162,54.9,160.1,54.9
	 M160.1,61c-1.5,0-2.7-1.1-2.7-2.7c0-1.5,1.1-2.7,2.7-2.7c1.6,0,2.7,1.2,2.7,2.7C162.7,59.8,161.5,61,160.1,61"/>
<polygon class="st0" points="166.6,55 165.8,55 165.8,61.6 168.6,61.6 168.6,60.9 166.6,60.9 "/>
<path class="st0" d="M173.5,54.9c-1.9,0-3.5,1.6-3.5,3.5c0,2,1.6,3.5,3.5,3.5c1.9,0,3.5-1.5,3.5-3.5C177,56.4,175.4,54.9,173.5,54.9
	 M173.5,61c-1.5,0-2.7-1.1-2.7-2.7c0-1.5,1.1-2.7,2.7-2.7c1.6,0,2.7,1.2,2.7,2.7C176.1,59.8,174.9,61,173.5,61"/>
<path class="st0" d="M173.5,54.9c-1.9,0-3.5,1.6-3.5,3.5c0,2,1.6,3.5,3.5,3.5c1.9,0,3.5-1.5,3.5-3.5C177,56.4,175.4,54.9,173.5,54.9
	 M173.5,61c-1.5,0-2.7-1.1-2.7-2.7c0-1.5,1.1-2.7,2.7-2.7c1.6,0,2.7,1.2,2.7,2.7C176.1,59.8,174.9,61,173.5,61"/>
<path class="st0" d="M182.5,58.3v0.8h1.7c0,1-1.1,2-2.2,2c-1.5,0-2.6-1.3-2.6-2.7c0-1.5,1.1-2.7,2.7-2.7c0.8,0,1.7,0.4,2.1,1
	l0.6-0.5c-0.7-0.8-1.7-1.3-2.7-1.3c-1.9,0-3.5,1.6-3.5,3.5c0,1.8,1.5,3.5,3.4,3.5c1.8,0,3.1-1.4,3.1-3.2v-0.3L182.5,58.3L182.5,58.3
	L182.5,58.3z"/>
<polygon class="st0" points="188.8,58.8 188.8,61.6 189.7,61.6 189.7,58.8 191.8,55 190.9,55 189.2,57.8 187.6,55 186.6,55 "/>
<path class="st0" d="M105.5,52.1h17.9V35.9h0.3l8,16.2h21l-10.9-16.3c-1-1.5-2.2-2.3-3-3v-0.4c6.8-2.3,9.7-5.5,9.7-13
	c0-12.7-9.6-17.5-20.9-17.5h-22.1C105.5,1.8,105.5,52.1,105.5,52.1z M123.4,15.5h1.4c3.1,0,5.9,0.4,5.9,4.3c0,3.7-3,4.2-6,4.2h-1.3
	L123.4,15.5L123.4,15.5z"/>
<path class="st0" d="M153.2,48.3c5.6,2.9,13,4.6,19.3,4.6c10.9,0,21.8-5.9,21.8-17.9c0-8.5-5.6-12.7-13.3-14.4l-4.2-1
	c-1.4-0.3-3.6-0.6-3.6-2.4c0-2.1,2.3-2.7,3.9-2.7c3.9,0,7.5,1.7,10.6,3.8l5-12.9c-5-3-10.2-4.4-15.9-4.4c-10.9,0-21.8,6.7-21.8,18.6
	c0,7.9,6,12.1,13.1,13.3l3.6,0.7c1.7,0.3,4.1,0.5,4.1,2.8c0,2.3-2.9,3-4.7,3c-4.2,0-8.2-2.1-11.4-4.6l-1-0.7L153.2,48.3z"/>
<path class="st0" d="M79.1,24.8c-1.2,0-1.9,0.9-1.8,1.9c0,1.1,0.7,1.9,1.8,1.9c1,0,1.8-0.8,1.8-1.9C80.9,25.7,80.2,24.8,79.1,24.8z"
	/>
<path class="st0" d="M84.5,1.8v16.9H73.3V1.8H55.8v50.3h17.5V34.6h11.2v17.5h17.6V1.8H84.5z M65.1,24.5h-3v1h2.7v2.5h-2.7v3.5h-3.6
	v-9.9h6.6V24.5z M72.9,31.6h-6.6v-9.9H70v6.8h3V31.6z M79.1,31.8c-3,0-5.5-1.8-5.5-5c0-3.1,2.4-5.1,5.5-5.1c3,0,5.4,2,5.5,5.1
	C84.6,29.8,82.2,31.8,79.1,31.8z M96.9,31.6h-3.1l-1.1-5.4h-0.1c0,0.5-0.1,1-0.2,1.5l-1,3.9h-3l-3.5-9.9h3.8l1.2,5.9h0.1
	c0-0.6,0.1-1.2,0.3-1.8l0.9-4.1H94l1.4,5.9h0.1c0.1-0.6,0.2-1.1,0.3-1.7l1-4.2h3.7L96.9,31.6z"/>
<polygon class="st1" points="49.8,52.1 49.8,1.8 0,1.8 "/>
<path class="st0" d="M200,4.5c0,1.6-1.2,2.8-2.9,2.8c-1.6,0-2.9-1.2-2.9-2.8s1.3-2.8,2.9-2.8C198.8,1.7,200,3,200,4.5 M195.1,4.6
	c0,1.1,0.9,2.1,2,2.1s2-1,2-2.1s-0.9-2.1-2-2.1C196,2.4,195.1,3.4,195.1,4.6 M196.8,5.8H196V3.3c0.2,0,0.6-0.1,1.1-0.1
	c0.6,0,0.9,0.1,1,0.2c0.2,0.1,0.3,0.3,0.3,0.5s-0.3,0.5-0.6,0.6l0,0c0.3,0.1,0.4,0.3,0.5,0.6c0.1,0.3,0.1,0.5,0.2,0.6h-0.9
	c-0.1-0.1-0.1-0.3-0.2-0.5c-0.1-0.3-0.2-0.3-0.4-0.3h-0.3L196.8,5.8L196.8,5.8z M196.9,4.4h0.3c0.3,0,0.5-0.1,0.5-0.3
	c0-0.2-0.2-0.3-0.4-0.3c-0.1,0-0.2,0-0.3,0L196.9,4.4L196.9,4.4z"/>
</svg>
