<?xml version="1.0" encoding="utf-8"?>
<!-- Generator: Adobe Illustrator 22.1.0, SVG Export Plug-In . SVG Version: 6.00 Build 0)  -->
<svg version="1.1" id="Layer_1" xmlns="http://www.w3.org/2000/svg" xmlns:xlink="http://www.w3.org/1999/xlink" x="0px" y="0px"
	 viewBox="0 0 110 34" style="enable-background:new 0 0 110 34;" xml:space="preserve">
<polygon points="31.2,31.4 31.2,29.9 30.7,29.9 30.7,33.5 31.2,33.5 31.2,31.8 32.9,31.8 32.9,33.5 33.4,33.5 33.4,29.9 32.9,29.9 
	32.9,31.4 "/>
<path d="M36.4,29.8c-1.1,0-1.9,0.9-1.9,1.9c0,1.1,0.9,1.9,1.9,1.9c1.1,0,1.9-0.8,1.9-1.9C38.4,30.7,37.4,29.8,36.4,29.8 M36.4,33.2
	c-0.8,0-1.5-0.6-1.5-1.5c0-0.8,0.6-1.5,1.5-1.5s1.5,0.7,1.5,1.5C37.9,32.5,37.2,33.2,36.4,33.2"/>
<path d="M36.4,29.8c-1.1,0-1.9,0.9-1.9,1.9c0,1.1,0.9,1.9,1.9,1.9c1.1,0,1.9-0.8,1.9-1.9C38.4,30.7,37.4,29.8,36.4,29.8 M36.4,33.2
	c-0.8,0-1.5-0.6-1.5-1.5c0-0.8,0.6-1.5,1.5-1.5s1.5,0.7,1.5,1.5C37.9,32.5,37.2,33.2,36.4,33.2"/>
<polygon points="40.5,30.3 41.4,30.3 41.4,29.9 39.2,29.9 39.2,30.3 40,30.3 40,33.5 40.5,33.5 "/>
<path d="M43.6,32c0.5,0,0.9-0.5,0.9-1c0-0.3-0.2-0.7-0.5-0.9c-0.3-0.1-0.6-0.2-1-0.2h-0.6v3.7h0.5v-1.5h0.2l1.1,1.5h0.6L43.6,32z
	 M42.9,30.3h0.1c0.4,0,1,0.1,1,0.7c0,0.6-0.5,0.7-1,0.7H43L42.9,30.3L42.9,30.3z"/>
<path d="M43.6,32c0.5,0,0.9-0.5,0.9-1c0-0.3-0.2-0.7-0.5-0.9c-0.3-0.1-0.6-0.2-1-0.2h-0.6v3.7h0.5v-1.5h0.2l1.1,1.5h0.6L43.6,32z
	 M42.9,30.3h0.1c0.4,0,1,0.1,1,0.7c0,0.6-0.5,0.7-1,0.7H43L42.9,30.3L42.9,30.3z"/>
<path d="M45.8,29.9v2.3c0,0.8,0.5,1.4,1.3,1.4s1.3-0.6,1.3-1.4v-2.3H48v2.1c0,0.6-0.2,1.1-0.9,1.1c-0.7,0-0.9-0.6-0.9-1.1v-2.1
	C46.2,29.9,45.8,29.9,45.8,29.9z"/>
<polygon points="49.8,33.5 50.2,33.5 50.2,30.8 53,33.7 53,29.9 52.5,29.9 52.5,32.6 49.8,29.7 "/>
<polygon points="54.3,33.5 54.8,33.5 54.8,30.8 57.5,33.7 57.5,29.9 57.1,29.9 57.1,32.6 54.3,29.7 "/>
<polygon points="58.9,33.5 60.9,33.5 60.9,33.2 59.4,33.2 59.4,31.8 60.9,31.8 60.9,31.4 59.4,31.4 59.4,30.3 60.9,30.3 60.9,29.9 
	58.9,29.9 "/>
<path d="M63.3,32c0.5,0,0.9-0.5,0.9-1c0-0.3-0.2-0.7-0.5-0.9c-0.3-0.1-0.6-0.2-1-0.2h-0.6v3.7h0.5v-1.5h0.2l1.1,1.5h0.6L63.3,32z
	 M62.6,30.3h0.1c0.4,0,1,0.1,1,0.7c0,0.6-0.5,0.7-1,0.7h-0.1L62.6,30.3L62.6,30.3z"/>
<path d="M63.3,32c0.5,0,0.9-0.5,0.9-1c0-0.3-0.2-0.7-0.5-0.9c-0.3-0.1-0.6-0.2-1-0.2h-0.6v3.7h0.5v-1.5h0.2l1.1,1.5h0.6L63.3,32z
	 M62.6,30.3h0.1c0.4,0,1,0.1,1,0.7c0,0.6-0.5,0.7-1,0.7h-0.1L62.6,30.3L62.6,30.3z"/>
<polygon points="68.7,30.3 69.5,30.3 69.5,29.9 67.3,29.9 67.3,30.3 68.2,30.3 68.2,33.5 68.7,33.5 "/>
<polygon points="70.6,33.5 72.6,33.5 72.6,33.2 71.1,33.2 71.1,31.8 72.6,31.8 72.6,31.4 71.1,31.4 71.1,30.3 72.6,30.3 72.6,29.9 
	70.6,29.9 "/>
<path d="M76.6,30.1c-0.3-0.2-0.6-0.2-0.9-0.2c-1.1,0-2,0.9-2,1.9c0,1.1,0.9,1.9,1.9,1.9c0.3,0,0.7-0.1,1-0.2v-0.5
	c-0.3,0.2-0.6,0.4-1,0.4c-0.8,0-1.4-0.7-1.4-1.5c0-0.8,0.6-1.5,1.4-1.5c0.3,0,0.7,0.1,1,0.4V30.1z"/>
<polygon points="78.3,31.4 78.3,29.9 77.8,29.9 77.8,33.5 78.3,33.5 78.3,31.8 80,31.8 80,33.5 80.5,33.5 80.5,29.9 80,29.9 
	80,31.4 "/>
<polygon points="81.8,33.5 82.3,33.5 82.3,30.8 85,33.7 85,29.9 84.5,29.9 84.5,32.6 81.8,29.7 "/>
<path d="M88.1,29.8c-1.1,0-1.9,0.9-1.9,1.9c0,1.1,0.9,1.9,1.9,1.9c1.1,0,1.9-0.8,1.9-1.9C90,30.7,89.1,29.8,88.1,29.8 M88.1,33.2
	c-0.8,0-1.5-0.6-1.5-1.5c0-0.8,0.6-1.5,1.5-1.5s1.5,0.7,1.5,1.5C89.5,32.5,88.8,33.2,88.1,33.2"/>
<path d="M88.1,29.8c-1.1,0-1.9,0.9-1.9,1.9c0,1.1,0.9,1.9,1.9,1.9c1.1,0,1.9-0.8,1.9-1.9C90,30.7,89.1,29.8,88.1,29.8 M88.1,33.2
	c-0.8,0-1.5-0.6-1.5-1.5c0-0.8,0.6-1.5,1.5-1.5s1.5,0.7,1.5,1.5C89.5,32.5,88.8,33.2,88.1,33.2"/>
<polygon points="91.6,29.9 91.2,29.9 91.2,33.5 92.7,33.5 92.7,33.2 91.6,33.2 "/>
<path d="M95.4,29.8c-1.1,0-1.9,0.9-1.9,1.9c0,1.1,0.9,1.9,1.9,1.9s1.9-0.8,1.9-1.9C97.3,30.7,96.5,29.8,95.4,29.8 M95.4,33.2
	c-0.8,0-1.5-0.6-1.5-1.5c0-0.8,0.6-1.5,1.5-1.5s1.5,0.7,1.5,1.5C96.9,32.5,96.2,33.2,95.4,33.2"/>
<path d="M95.4,29.8c-1.1,0-1.9,0.9-1.9,1.9c0,1.1,0.9,1.9,1.9,1.9s1.9-0.8,1.9-1.9C97.3,30.7,96.5,29.8,95.4,29.8 M95.4,33.2
	c-0.8,0-1.5-0.6-1.5-1.5c0-0.8,0.6-1.5,1.5-1.5s1.5,0.7,1.5,1.5C96.9,32.5,96.2,33.2,95.4,33.2"/>
<path d="M100.4,31.7v0.4h1c0,0.6-0.6,1.1-1.2,1.1c-0.8,0-1.4-0.7-1.4-1.5c0-0.8,0.6-1.5,1.5-1.5c0.4,0,0.9,0.2,1.1,0.6l0.3-0.3
	c-0.4-0.4-0.9-0.7-1.5-0.7c-1.1,0-1.9,0.9-1.9,1.9c0,1,0.8,1.9,1.9,1.9c1,0,1.7-0.8,1.7-1.8v-0.1L100.4,31.7L100.4,31.7L100.4,31.7z
	"/>
<polygon points="103.8,32 103.8,33.5 104.3,33.5 104.3,32 105.5,29.9 105,29.9 104.1,31.4 103.2,29.9 102.6,29.9 "/>
<path d="M58,28.3h9.8v-8.9h0.2l4.4,8.9H84l-6-9c-0.5-0.8-1.2-1.2-1.7-1.6v-0.2c3.7-1.2,5.3-3,5.3-7.2c0-7-5.3-9.6-11.5-9.6H58
	C58,0.6,58,28.3,58,28.3z M67.9,8.2h0.8c1.7,0,3.2,0.2,3.2,2.4c0,2.1-1.7,2.3-3.3,2.3h-0.7L67.9,8.2L67.9,8.2z"/>
<path d="M84.3,26.2c3.1,1.6,7.2,2.5,10.6,2.5c6,0,12-3.2,12-9.8c0-4.7-3.1-7-7.3-7.9l-2.3-0.5c-0.8-0.2-2-0.3-2-1.3
	c0-1.1,1.3-1.5,2.1-1.5c2.1,0,4.1,0.9,5.8,2.1l2.7-7.1c-2.7-1.7-5.6-2.4-8.7-2.4c-6,0-12,3.7-12,10.2c0,4.3,3.3,6.6,7.2,7.3l2,0.4
	c0.9,0.2,2.2,0.3,2.2,1.5c0,1.2-1.6,1.7-2.6,1.7c-2.3,0-4.5-1.1-6.3-2.5l-0.5-0.4L84.3,26.2z"/>
<path d="M43.5,13.3c-0.7,0-1.1,0.5-1,1.1c0,0.6,0.4,1.1,1,1.1c0.6,0,1-0.4,1-1.1C44.5,13.8,44.1,13.3,43.5,13.3z"/>
<path d="M46.5,0.6V10h-6.2V0.6h-9.6v27.7h9.6v-9.6h6.2v9.6h9.7V0.6H46.5z M35.8,13.2h-1.7v0.6h1.5v1.4h-1.5V17h-2v-5.4h3.6V13.2z
	 M40.1,17h-3.6v-5.4h2v3.7h1.6V17z M43.5,17.1c-1.7,0-3-1-3-2.8c0-1.7,1.3-2.8,3-2.8c1.6,0,3,1.1,3,2.8
	C46.5,16.1,45.2,17.1,43.5,17.1z M53.3,17h-1.7l-0.6-3h0c0,0.3,0,0.5-0.1,0.8L50.3,17h-1.7l-1.9-5.4h2.1l0.7,3.2h0
	c0-0.3,0-0.7,0.1-1l0.5-2.2h1.5l0.8,3.2h0c0-0.3,0.1-0.6,0.1-1l0.5-2.3h2.1L53.3,17z"/>
<polygon points="27.4,28.3 27.4,0.6 0,0.6 "/>
<path d="M110,2.1c0,0.9-0.7,1.5-1.6,1.5c-0.9,0-1.6-0.7-1.6-1.5s0.7-1.5,1.6-1.5C109.3,0.6,110,1.3,110,2.1 M107.3,2.2
	c0,0.6,0.5,1.1,1.1,1.1c0.6,0,1.1-0.5,1.1-1.1S109,1,108.4,1C107.8,1,107.3,1.5,107.3,2.2 M108.2,2.8h-0.4V1.5c0.1,0,0.3,0,0.6,0
	c0.3,0,0.5,0,0.6,0.1s0.1,0.1,0.1,0.3s-0.1,0.3-0.3,0.3l0,0c0.1,0,0.2,0.1,0.3,0.3c0,0.2,0,0.3,0.1,0.3h-0.5c0,0,0-0.2-0.1-0.3
	c0-0.1-0.1-0.2-0.2-0.2h-0.1L108.2,2.8L108.2,2.8z M108.3,2.1h0.1c0.2,0,0.3,0,0.3-0.2c0-0.1-0.1-0.2-0.2-0.2c0,0-0.1,0-0.1,0
	L108.3,2.1L108.3,2.1z"/>
</svg>
