<?xml version="1.0" encoding="utf-8"?>
<!-- Generator: Adobe Illustrator 22.1.0, SVG Export Plug-In . SVG Version: 6.00 Build 0)  -->
<svg version="1.1" id="Layer_1" xmlns="http://www.w3.org/2000/svg" xmlns:xlink="http://www.w3.org/1999/xlink" x="0px" y="0px"
	 viewBox="0 0 347 45" style="enable-background:new 0 0 347 45;" xml:space="preserve">
<path id="Passion_for_expertise_copy_2" d="M1.7,35.9c0.3,0,0.6,0,0.8-0.2c0.2-0.2,0.4-0.5,0.5-0.8c0.2-1,0.7-2.6,1.4-4.7
	c0.4-1.3,0.8-2.5,1.3-3.7c0-0.3,0.1-0.6,0.2-0.9c0.1-0.5,0.3-0.9,0.5-1.4c0.1-0.3,0.3-0.6,0.6-0.8c0.6-0.2,1.3-0.4,1.9-0.4
	c1.6,0.1,4.3-0.8,8.2-2.5c1.2-0.7,2.2-1.6,3.1-2.6c0.9-0.9,1.7-1.8,2.4-2.8c0.6-0.6,1-1.3,1.3-2.1c0.1-0.4,0.4-0.8,0.8-1.1
	c0.2-0.3,0.3-0.6,0.4-0.9c0.1-0.5,0.2-1,0.2-1.6c0.1-0.4,0.1-0.8,0.1-1.2c0-0.4-0.1-0.8-0.2-1.2c-0.1-0.3-0.3-0.8-0.5-1.3
	c-0.4-0.9-1-1.6-1.6-2.3c-0.4-0.5-0.9-0.9-1.6-1.1c-0.2,0-0.4-0.1-0.5-0.2c-0.1-0.1-0.2-0.2-0.2-0.4c-0.4-0.4-0.9-0.6-1.5-0.7
	c-0.4-0.1-0.9-0.3-1.3-0.5c-1.7,0-2.8,0-3.2-0.1l-1.6-0.1c-0.4,0-0.8,0.1-1.2,0.2c-0.4,0.3-0.7,0.6-1,1c-0.6,0.4-1,1-1.2,1.7
	c0,0.2,0.1,0.4,0.2,0.5c0.1,0.1,0.2,0.2,0.1,0.3c0,0.2-0.1,0.4-0.2,0.6C9.9,5,9.8,5.2,9.8,5.3L9.2,6.8c-0.4,0.8-0.8,2-1.4,3.7
	s-1,3.2-1.4,4.7c-0.4,0.7-0.7,1.5-0.9,2.3c-0.1,0.2-0.1,0.4-0.2,0.5c-0.1,0.2-0.1,0.3-0.2,0.5c-0.1,0.3-0.1,0.6-0.2,0.8
	c-0.1,0.4-0.2,0.8-0.3,1.3c-0.3,1.4-0.7,2.1-1.1,2c0,0.2-0.1,0.5-0.1,0.7c-0.1,0.3-0.1,0.6-0.1,0.9c0,0.5-0.2,0.9-0.3,1.4
	c-0.3,0.9-0.5,1.8-0.8,2.7c-0.8,1.9-1.4,4-1.7,6.1c0,0.3,0.1,0.7,0.4,0.9c0.1,0.2,0.3,0.4,0.5,0.5C1.3,35.8,1.5,35.9,1.7,35.9
	C1.7,35.9,1.7,35.9,1.7,35.9z M7.9,20.4c-0.1-0.1-0.1-0.3-0.1-0.5c0-0.2,0-0.4,0.1-0.6v-0.2c0.1-0.2,0.4-1.1,1.1-2.5
	c0.7-1.8,1.3-3.7,1.8-5.6c0.6-1.6,1.3-3.2,2.1-4.8c0.2-0.7,0.6-1.3,1-1.9c0.3-0.3,0.7-0.6,1.2-0.7c0.5-0.1,1-0.1,1.5-0.2
	c0.6,0,1.3,0.1,1.9,0.2c0.9,0.3,1.8,0.8,2.5,1.5c0.7,0.7,1.1,1.5,1.3,2.4c0,0.2,0.1,0.4,0,0.6c0,0.7-0.1,1.3-0.4,1.9
	c-0.2,0.6-0.5,1.2-0.8,1.8c-0.6,1.2-1,2-1.2,2.4c-0.6,0.7-1.2,1.4-1.9,2.1c-0.5,0.5-1.1,0.9-1.6,1.4c-1.3,0.8-2.6,1.5-4,2
	c-0.7,0.3-1.4,0.5-2.1,0.6c-0.6,0.1-1.1,0.2-1.7,0.2C8.3,20.5,8.1,20.5,7.9,20.4C7.9,20.4,7.9,20.4,7.9,20.4z M22.7,31.7
	c0.5,0.3,1.2,0.5,1.8,0.5c2.1,0,5-1.8,8.6-5.5c0.3-0.3,0.5-0.6,0.8-1s0.5-0.7,0.8-1c0.1,0.4,0.2,0.7,0.4,1.1
	c0.1,0.4,0.3,0.7,0.5,1.1c1.4,2.8,3.1,4.2,5.1,4.1c0.2,0,0.4,0,0.6,0c0.6-0.1,1-0.6,0.9-1.2c0-0.6-0.5-1.1-1.1-1.1
	c-0.5-0.1-1.1-0.3-1.5-0.6c-0.4-0.3-0.8-0.6-1-1c-0.7-1.1-1.1-2.4-1.1-3.6c0-0.8,0.2-1.7,0.5-2.5l0.9-2.5L37,17
	c-1.4-1.2-2.1-1.9-2.3-2.2c-0.4-0.3-1-0.5-1.5-0.5c-0.9,0-1.8,0.3-2.5,0.9c-1,0.7-1.9,1.5-2.7,2.4c-0.7,0.6-1.3,1.3-1.6,2.2V20
	c-0.1,0-0.3,0.1-0.4,0.2c-0.1,0.1-0.1,0.2-0.1,0.4c-0.2,0.3-0.5,0.5-0.6,0.9c-0.2,0.4-0.5,0.7-0.8,1c-0.8,1.3-1.4,2.7-2,4.2
	c-0.4,0.9-0.7,1.8-0.8,2.7c0,0.2,0,0.3,0.1,0.5c0.2,0.2,0.3,0.5,0.2,0.9c0.1,0.2,0.2,0.3,0.3,0.4C22.4,31.3,22.6,31.5,22.7,31.7
	L22.7,31.7L22.7,31.7z M24.5,28.9l0.5-1.1c0.2-0.6,0.5-1.2,0.8-1.7c1.1-2.2,2.5-4.3,4.1-6.2c1.5-1.8,2.6-2.6,3.3-2.6
	c0.4,0,0.7,0.2,1,0.5c0.4,0.4,0.8,1,1,1.5l-1.1,1.8c-1.8,2.4-3.9,4.6-6.2,6.5c-0.5,0.4-1,0.8-1.6,1c-0.4,0.2-0.8,0.4-1.3,0.5
	C24.7,29.1,24.5,29.1,24.5,28.9C24.5,28.9,24.5,28.9,24.5,28.9z M47.3,33.7c0.5,0.1,1,0.1,1.5,0.1c0.9,0,1.7-0.1,2.5-0.2
	c0.6-0.1,1.3-0.2,1.8-0.4c0.5-0.2,1-0.5,1.3-0.8c0.3-0.3,0.5-0.7,0.5-1c0-0.6-0.3-1.3-0.7-1.8c-0.3-0.6-0.7-1.2-1.2-1.6
	c-1.2-1-2.4-2-3.6-2.9c-0.2-0.2-0.4-0.3-0.6-0.5c-0.2-0.1-0.3-0.3-0.5-0.4c-0.1-0.1-0.2-0.2-0.2-0.4c0-0.2,0.1-0.3,0.1-0.5
	c0-0.3,0-0.6,0.1-0.9c0-0.2,0.1-0.4,0.2-0.6c1.8-2.6,2.7-3.7,2.7-3.4c0.1,0,0.2,0,0.3-0.1c0.1-0.1,0.2-0.3,0.2-0.4
	c1.5-1.1,3.1-2,4.8-2.7c0.2,0,0.3,0,0.5,0.1c0.1,0.1,0.1,0.2,0.1,0.4c-0.1,0.6-0.4,1.1-0.7,1.6c-0.2,0.5-0.5,0.9-1,1.2
	c-0.1,0.1-0.1,0.1-0.2,0.2c-0.1,0.1-0.1,0.2-0.1,0.3c0,0.2,0,0.3,0.1,0.5c0,0.1,0.1,0.1,0.2,0.2c0.1,0,0.2,0.1,0.2,0.2
	c0.1,0.1,0.1,0.2,0.2,0.3c0.1,0.3,0.4,0.6,0.7,0.5c0.7-0.1,1.3-0.4,1.8-0.8c0.2-0.2,0.4-0.4,0.5-0.6c0.1-0.2,0.2-0.3,0.2-0.5
	c0-0.1,0-0.2,0.1-0.2c0,0,0.1,0,0.2,0c0.3,0,0.5-0.3,0.7-1c0.2-0.7,0.2-1.4,0.2-2.1c-0.2-0.5-0.5-1-0.8-1.4
	c-0.4-0.4-0.8-0.8-1.3-1.1c-0.4-0.2-0.9-0.4-1.3-0.4c-0.6,0-1.2,0.1-1.7,0.4c-1.2,0.5-2.4,1.1-3.5,1.9c-1.3,0.8-2.5,1.7-3.6,2.8
	c-0.7,0.8-1.3,1.6-1.8,2.6c-0.4,0.8-0.7,1.6-0.8,2.5c0,0.6,0.2,1.3,0.4,1.8c0.1,0.4,0.4,0.8,0.8,1v0.2c0,0.3,0.1,0.7,0.5,0.8
	c0.4,0.4,1.1,1,2,1.8c0.4,0.2,0.7,0.4,1,0.6c0.2,0.1,0.4,0.3,0.5,0.5c0.2,0,0.3,0.1,0.5,0.2c0.1,0.1,0.3,0.1,0.5,0.2
	c0.2,0.1,0.3,0.3,0.4,0.5c0,0,0,0-0.2,0c-0.4,0.4-1,0.6-1.5,0.6c-0.8,0.2-1.7,0.3-2.5,0.3c-1.2-0.1-2.1-0.2-2.7-0.2
	c-0.2,0-0.4,0-0.5,0.1c-0.1,0.1-0.2,0.2-0.2,0.3v0.4c0.3,0.5,0.7,0.9,1.2,1.2C46.1,33.1,46.6,33.5,47.3,33.7
	C47.3,33.7,47.3,33.7,47.3,33.7z M64.3,33.7c0.5,0.1,1,0.1,1.5,0.1c0.9,0,1.7-0.1,2.6-0.2c0.6-0.1,1.3-0.2,1.8-0.4
	c0.5-0.2,1-0.5,1.3-0.8c0.3-0.3,0.5-0.7,0.4-1c0-0.6-0.3-1.3-0.7-1.8c-0.3-0.6-0.7-1.2-1.2-1.6c-1.2-1-2.4-2-3.6-2.9
	c-0.2-0.2-0.4-0.3-0.6-0.5c-0.2-0.1-0.3-0.3-0.5-0.4c-0.1-0.1-0.2-0.2-0.2-0.4c0-0.2,0.1-0.3,0.1-0.5c0-0.3,0-0.6,0.1-0.9
	c0-0.2,0.1-0.4,0.2-0.6c1.8-2.6,2.7-3.7,2.7-3.4c0.1,0,0.2,0,0.3-0.1c0.1-0.1,0.2-0.3,0.2-0.4c1.5-1.1,3.1-2,4.8-2.7
	c0.2,0,0.3,0,0.5,0.1c0.1,0.1,0.1,0.2,0.1,0.4c-0.1,0.6-0.4,1.1-0.7,1.6c-0.2,0.5-0.5,0.9-1,1.2c-0.1,0.1-0.1,0.1-0.2,0.2
	c-0.1,0.1-0.1,0.2-0.1,0.3c0,0.2,0,0.3,0.1,0.5c0,0.1,0.1,0.1,0.2,0.2c0.1,0,0.2,0.1,0.2,0.2c0.1,0.1,0.1,0.2,0.2,0.3
	c0.1,0.3,0.4,0.6,0.7,0.5c0.7-0.1,1.3-0.4,1.8-0.8c0.2-0.2,0.4-0.4,0.6-0.6c0.1-0.2,0.2-0.3,0.2-0.5c0-0.1,0-0.2,0.1-0.2
	c0,0,0.1,0,0.2,0c0.3,0,0.5-0.3,0.7-1c0.2-0.7,0.2-1.4,0.2-2.1c-0.2-0.5-0.5-1-0.8-1.4c-0.4-0.4-0.8-0.8-1.3-1.1
	c-0.4-0.2-0.9-0.4-1.3-0.4c-0.6,0-1.2,0.1-1.7,0.4c-1.2,0.5-2.4,1.1-3.5,1.9c-1.3,0.8-2.5,1.7-3.6,2.8c-0.7,0.8-1.3,1.6-1.8,2.6
	c-0.4,0.8-0.7,1.6-0.8,2.5c0,0.6,0.2,1.3,0.4,1.8c0.1,0.4,0.4,0.8,0.8,1v0.2c0,0.3,0.1,0.7,0.5,0.8c0.4,0.4,1.1,1,2.1,1.8
	c0.4,0.2,0.7,0.4,1,0.6c0.2,0.1,0.4,0.3,0.4,0.5c0.2,0,0.3,0.1,0.4,0.2c0.1,0.1,0.3,0.1,0.4,0.2c0.2,0.1,0.3,0.3,0.4,0.5
	c0,0-0.1,0-0.2,0c-0.4,0.4-1,0.6-1.6,0.6c-0.8,0.2-1.7,0.3-2.5,0.3c-1.2-0.1-2.1-0.2-2.7-0.2c-0.2,0-0.4,0-0.5,0.1
	c-0.1,0.1-0.2,0.2-0.2,0.3v0.4c0.3,0.5,0.7,0.9,1.2,1.2C63.1,33.1,63.7,33.5,64.3,33.7L64.3,33.7L64.3,33.7z M83.7,11.6
	c0.3,0.3,0.7,0.5,1.1,0.5c0.7-0.1,1.3-0.5,1.6-1.1c0.3-0.4,0.6-0.8,0.9-1.2c0.2-0.3,0.2-0.6,0.2-0.9c0-0.4-0.1-0.8-0.3-1.2
	C87,7,86.4,6.5,85.7,6.5c-0.3,0-0.5,0.1-0.7,0.2c-0.1,0-0.3,0.1-0.3,0.2c-0.1,0.1-0.1,0.2-0.2,0.4c0,0.5-0.2,1-0.5,1.4
	c-0.2,0.4-0.5,0.7-0.9,0.9c-0.2,0-0.2,0.3,0,0.9C83.2,10.8,83.4,11.3,83.7,11.6C83.7,11.6,83.7,11.6,83.7,11.6z M78.9,31.9
	c0.2,0.3,0.6,0.6,0.9,0.7c0.3-0.1,0.5-0.3,0.6-0.5c0.2-0.6,0.4-1.3,0.6-2c0.3-0.4,0.5-0.9,0.6-1.5c0.1-0.6,0.2-1,0.3-1.2
	c0.3-0.9,0.6-1.7,0.9-2.5c0.2-0.9,0.5-1.7,0.8-2.5c0.4-0.7,0.6-1.5,0.7-2.3c0-0.3-0.1-0.7-0.3-0.9c-0.2-0.3-0.4-0.6-0.6-0.8
	c-0.1-0.1-0.3-0.2-0.5-0.2c-0.2,0-0.4,0-0.6,0.1c-0.2,0-0.4,0.1-0.6,0.2c-0.1,0.1-0.2,0.3-0.2,0.4c-0.7,2.4-1.5,4.7-2.4,7
	c-0.2,0.5-0.4,1.1-0.4,1.6c0,0.2-0.1,0.3-0.1,0.5c-0.1,0.2-0.1,0.4-0.1,0.6c-0.2,0.4-0.3,0.8-0.2,1.2C78.1,30.6,78.4,31.4,78.9,31.9
	L78.9,31.9z M91.1,32.8c0.7,0,1.3-0.1,2-0.4c0.7-0.3,1.3-0.6,1.9-1.1c0.9-0.5,1.8-1.2,2.7-1.9c0.8-0.8,1.5-1.6,2.2-2.5
	c1.6-2,2.5-4.5,2.7-7.1c0.1-1-0.1-2-0.5-2.9c-0.4-0.7-1.1-1.2-1.9-1.5c-0.2-0.2-0.5-0.4-0.7-0.6c-0.2-0.1-0.4-0.2-0.6-0.2
	c-0.5,0-0.9,0.1-1.3,0.2c-0.7,0.2-1.4,0.4-2.1,0.8c-0.8,0.4-1.5,1-2.2,1.6c-0.7,0.6-1.4,1.3-1.9,2c-0.6,0.7-1.1,1.5-1.6,2.2
	c-0.5,0.8-0.9,1.6-1.2,2.5c-0.3,0.6-0.4,1.2-0.4,1.8c0.1,0.4,0,0.6-0.2,0.5c0,0.1-0.1,0.1-0.2,0.2c-0.1,0-0.1,0.1-0.1,0.1
	c0,0.1,0.1,0.2,0.2,0.3c0,0.1,0,0.2,0,0.5c0,0.2,0,0.5-0.1,0.7c0,0.2-0.1,0.3-0.1,0.5c0.1,1.2,0.7,2.4,1.7,3.2
	c0.3,0.3,0.6,0.5,1,0.8C90.5,32.7,90.8,32.8,91.1,32.8C91.1,32.8,91.1,32.8,91.1,32.8z M95.9,27.5c-1.7,1.8-3.1,2.7-4.2,2.7
	c-0.4,0-0.8-0.1-1-0.5c-0.3-0.3-0.4-0.8-0.4-1.2c0-0.7,0.2-1.4,0.5-2c0.7-1.6,1.5-3.1,2.3-4.5c0.7-1.1,1.6-2.2,2.6-3.1
	c0.6-0.6,1.4-0.9,2.3-1c0.3,0,0.7,0.1,1,0.2c0.3,0.1,0.4,0.7,0.4,1.7c0,0.7-0.1,1.4-0.2,2c-0.4,1.1-0.8,2.1-1.4,3
	C97.3,25.8,96.6,26.7,95.9,27.5C95.9,27.5,95.9,27.5,95.9,27.5z M123,31.2c0.5,0,0.8-0.4,0.9-0.9c0-0.4-0.2-0.7-0.5-1
	c-0.4-0.4-0.6-0.8-0.8-1.3c-0.2-0.6-0.2-0.9,0.1-0.9V27c-0.1,0-0.2,0-0.2-0.1c0,0,0-0.1-0.1-0.1c0.2-0.2,0.3-0.5,0.3-0.8
	c0.2-1.3,0.2-2.7-0.1-4c-0.1-0.3-0.1-0.5-0.1-0.8c-0.3-0.6-0.7-1.1-1.2-1.5c-0.4-0.5-1-0.8-1.6-0.9c-0.5,0.1-1,0.3-1.5,0.5
	c-0.9,0.3-1.7,0.7-2.4,1.3c-0.8,0.5-1.5,1-2.2,1.6l-2.8,1.9c0-0.3,0.1-0.6,0.3-0.9c0.2-0.4,0.3-0.8,0.4-1c0.9-1.2,1.4-2.6,1.7-4.1
	c0-0.7-0.3-1.4-0.8-2c-0.3-0.4-0.8-0.7-1.3-0.8c-0.2,0-0.5,0.1-0.7,0.2c-0.1,0-0.2,0-0.3,0.1c-0.1,0.1-0.2,0.2-0.2,0.3v0.1
	c0,0.7-0.2,1.4-0.4,2c-0.3,0.7-0.6,1.4-1,2c-0.5,1.1-1,2.3-1.3,3.5c-0.2,0.3-0.4,0.6-0.6,1c-0.1,0.3-0.2,0.5-0.4,0.6
	c-0.2,0.6-0.4,1.2-0.5,1.9c-0.2,0.6-0.3,1.2-0.3,1.9c0.1,0.3,0.3,0.5,0.5,0.7c0.3,0.3,0.5,0.5,0.7,0.7c0.1,0.1,0.3,0.3,0.4,0.4
	c0.2,0.2,0.4,0.3,0.6,0.3c0.1,0,0.3,0,0.4-0.1c0.2,0,0.3-0.1,0.4-0.2c0.1-0.1,0.3-0.4,0.5-0.8c0.3-0.5,0.7-1,1.1-1.4
	c1.1-1,2.4-2,3.7-2.8c1.3-0.8,2.8-1.8,4.7-3c0.3-0.2,0.6-0.3,1-0.4c0.4,0,0.7,0.4,0.7,1.1c0,0.2,0,0.5,0,1c0.1,0.3,0,0.6-0.2,0.9
	c-0.1,0.3-0.2,0.7-0.2,1c0,1.1,0.2,2.2,0.4,3.2c0.2,0.6,0.6,1.1,1.1,1.4C121.9,31.1,122.4,31.2,123,31.2L123,31.2L123,31.2z
	 M141.1,38.8c0.2-0.2,0.3-0.5,0.4-0.8c0.1-0.4,0.1-0.7,0.1-1.1l0.1-1.5c0-0.6,0-1.2,0.1-1.8c0.1-0.6,0.1-1,0.1-1.2
	c0-0.2,0.1-0.3,0.1-0.5c0-0.4,0.1-0.9,0.3-1.2c-0.1-0.6,0.1-1.3,0.4-1.8c0.1-1.1,0.3-2.1,0.6-3.1c0.4-1.7,0.7-2.8,0.9-3.3
	c0.2-0.3,0.2-0.7,0.2-1c0-0.1,0.1-0.3,0.1-0.4c0.1-0.1,0.2-0.2,0.4-0.2c0.4-0.3,0.8-0.5,1.3-0.5c0.9-0.2,1.4-0.3,1.6-0.3
	c0.7-0.1,1.5-0.3,2.6-0.5c0.7-0.1,1.4-0.3,2.1-0.5c0.4-0.1,0.8-0.3,1.1-0.5c0.1-0.4,0.1-0.8-0.1-1.1c-0.2-0.5-0.5-0.9-0.9-1.1
	c-0.6-0.3-1.3-0.3-1.9,0c-1.2,0.3-2.3,0.5-3.6,0.5c-0.5,0-0.7-0.1-0.7-0.2c0.1-0.4,0.2-0.8,0.4-1.2c0.3-0.7,0.4-1.2,0.6-1.5h-0.1
	c0.2-0.2,0.4-0.5,0.5-0.8c0.2-0.4,0.4-0.7,0.5-1c0.2-0.3,0.3-0.7,0.5-1c0.1-0.3,0.2-0.5,0.2-0.6c0.2,0,0.3-0.2,0.3-0.6
	c0.2-0.6,0.5-1.1,0.9-1.6c0.3-0.3,0.5-0.6,0.7-1C150.9,7.2,151,7,151,7c0.5-0.7,1.1-1.3,1.8-1.8c0.7-0.6,1.4-1.2,2.2-1.8
	c0.2-0.1,0.4-0.1,0.5,0c0.1,0.1,0.2,0.2,0.2,0.3c0,0.2-0.1,0.4-0.1,0.5c-0.2,0.4-0.4,0.8-0.4,1.2c0,0.1,0.1,0.2,0.2,0.4
	c0.1,0.2,0.1,0.4,0.1,0.6c0,0.8,0.2,1.2,0.8,1.2c0.1,0,0.3,0,0.4-0.1c0.3,0,0.7-0.6,1.2-1.7c0.4-0.9,0.8-1.8,1-2.7
	c0-0.3,0-0.6-0.1-1c-0.2-0.4-0.5-0.7-0.8-1c-0.3-0.3-0.7-0.6-1.1-0.9c-0.4-0.1-0.8-0.2-1.2-0.2c-0.6,0-1.1,0-1.7,0.2
	c-0.6,0.2-1.2,0.4-1.8,0.8c-1,0.8-1.9,1.7-2.8,2.7c-0.8,0.7-1.4,1.6-1.9,2.5c-0.6,1-1.1,2-1.4,3.2c-0.5,0.8-0.9,1.7-1.2,2.6
	c-0.4,1-1,2.6-1.8,4.9c-0.3,0.5-0.6,1.1-0.8,1.6c-0.5,0.3-0.7,0.8-0.7,1.3c0,0.6-0.1,1.1-0.3,1.7c-0.2,0.8-0.4,1.6-0.7,2.5
	c-0.1,0.9-0.3,1.9-0.6,3l-0.1,0.6c-0.1,0.6-0.3,1.7-0.6,3.1s-0.4,2.3-0.4,2.5c0,0.6-0.1,1.2-0.2,1.8l-0.1,1.2c0,0.2,0,0.5,0.1,0.7
	c0.1,0.2,0.2,0.4,0.4,0.6c0.3,0.4,0.7,0.8,1.1,1.1C140.6,38.9,140.9,38.9,141.1,38.8L141.1,38.8L141.1,38.8z M157.9,32.8
	c0.7,0,1.3-0.1,2-0.4c0.7-0.3,1.3-0.6,1.9-1.1c0.9-0.5,1.8-1.2,2.6-1.9c0.8-0.8,1.5-1.6,2.1-2.5c1.6-2,2.5-4.5,2.6-7.1
	c0.1-1-0.1-2-0.5-2.9c-0.4-0.7-1.1-1.2-1.9-1.5c-0.2-0.2-0.5-0.4-0.7-0.6c-0.2-0.1-0.4-0.2-0.6-0.2c-0.5,0-0.9,0.1-1.4,0.2
	c-0.7,0.2-1.4,0.4-2.1,0.8c-0.8,0.4-1.5,1-2.1,1.6c-0.7,0.6-1.4,1.3-1.9,2c-0.6,0.7-1.1,1.5-1.6,2.2c-0.5,0.8-0.9,1.6-1.2,2.5
	c-0.3,0.6-0.4,1.2-0.4,1.8c0.1,0.4,0,0.6-0.2,0.5c0,0.1-0.1,0.1-0.1,0.2c-0.1,0-0.1,0.1-0.1,0.1c0,0.1,0.1,0.2,0.2,0.3
	c0,0.1,0,0.2,0,0.5c0,0.2,0,0.5-0.1,0.7c0,0.2-0.1,0.3-0.1,0.5c0.1,1.2,0.7,2.4,1.6,3.2c0.3,0.3,0.6,0.5,1,0.8
	C157.3,32.7,157.6,32.8,157.9,32.8L157.9,32.8L157.9,32.8z M162.7,27.5c-1.7,1.8-3.1,2.7-4.2,2.7c-0.4,0-0.8-0.1-1-0.5
	c-0.3-0.3-0.4-0.8-0.4-1.2c0-0.7,0.2-1.4,0.5-2c0.7-1.6,1.5-3.1,2.4-4.5c0.7-1.1,1.6-2.2,2.6-3.1c0.6-0.6,1.4-0.9,2.3-1
	c0.3,0,0.7,0.1,1,0.2c0.3,0.1,0.4,0.7,0.4,1.7c0,0.7-0.1,1.4-0.2,2c-0.4,1.1-0.8,2.1-1.4,3C164.1,25.8,163.4,26.7,162.7,27.5
	L162.7,27.5L162.7,27.5z M173.1,31.8c0.3,0.4,0.7,0.7,1.2,0.8c0.4-0.1,0.8-0.4,1-0.8c0.2-0.3,0.3-0.5,0.4-0.8
	c0.1-0.3,0.2-0.5,0.2-0.6c0.1-0.6,0.2-1.2,0.4-1.8c0.1-0.7,0.4-1.3,0.7-1.8c0.4-0.8,0.9-1.5,1.4-2.1c0.8-0.9,1.7-1.8,2.8-2.5
	c0.9-0.6,2.3-1.4,4.2-2.5c0.4-0.2,0.8-0.4,1.2-0.5c0.4-0.1,0.8-0.2,1.1-0.2c0.5,0,1-0.1,1.4-0.1c0.2,0,0.4-0.2,0.4-0.4
	c0-0.1,0-0.1-0.1-0.2c0-0.1-0.1-0.1-0.2-0.1c-0.1-0.1-0.2-0.2-0.3-0.2c-0.2-0.1-0.3-0.3-0.3-0.5c-0.1-0.3-0.4-0.6-0.7-0.7
	c-0.4-0.2-0.8-0.2-1.2-0.2c-0.7,0-1.3,0.1-1.9,0.4c-0.1,0.1-0.4,0.2-0.8,0.3c-0.3,0.1-0.6,0.2-0.9,0.4c-1,0.6-2,1.3-2.9,2
	c-1,0.7-1.9,1.6-2.7,2.6c-0.1,0-0.1,0.1-0.2,0.1c-0.1,0-0.1,0.1-0.2,0.1c0,0-0.1,0-0.1-0.1c0.1-0.5,0.3-0.9,0.5-1.3
	c0.3-0.7,0.5-1.2,0.7-1.5c0.6-1.3,1-2.2,1.3-2.9c0.2-0.5,0.3-1,0.4-1.5c0-0.3-0.1-0.6-0.3-0.8c-0.3-0.3-0.7-0.5-1.1-0.4
	c-0.3,0-0.6,0.1-0.9,0.2c-1,1.7-1.9,3.6-2.6,5.5c-0.8,1.7-1.3,3.4-1.8,5.2l-0.2,1c-0.4,1.3-0.6,2.6-0.8,4c0,0.2-0.1,0.5-0.1,0.8
	c0,0.3,0,0.5,0.1,0.8C172.7,31.4,172.9,31.6,173.1,31.8L173.1,31.8L173.1,31.8z M211,31.8c0.7-0.4,1.3-0.9,1.9-1.5
	c0.4-0.4,0.8-0.9,1.1-1.5c0.2-0.4,0.1-0.6-0.2-0.6c-0.1-0.1-0.3-0.2-0.4-0.3c-0.1-0.1-0.3-0.2-0.4-0.2c-0.1,0-0.2,0-0.3,0.1
	c-0.1,0.1-0.3,0.2-0.4,0.3c-0.1,0.1-0.2,0.3-0.3,0.3l-0.4,0.5c-0.2,0.2-0.3,0.3-0.6,0.4l-0.9,0.5c-0.4,0.2-0.9,0.4-1.4,0.4
	c-0.6,0-1.1-0.1-1.6-0.2c-1.1-0.2-1.7-1.1-1.7-2.8c0-0.3,0-0.7,0.1-1c0.1-0.7,0.2-1.5,0.4-2.2c0.1-0.3,0.3-0.6,0.7-0.6
	c0.2,0,0.5,0.1,0.7,0.1c0.7,0.5,1.6,0.7,2.5,0.6c0.7,0,1.4-0.1,2.1-0.3c1.2-0.6,2.3-1.5,3.2-2.5c0.8-0.8,1.3-1.7,1.6-2.8
	c0-1.1-0.5-2.1-1.2-2.9c-0.3-0.4-0.6-0.6-1-0.8c-0.5-0.2-1.1-0.4-1.7-0.4c-0.3,0-0.5-0.1-0.8-0.1c-0.2,0-0.5,0-0.7-0.1
	c-0.5,0-1,0.2-1.4,0.5c-1.2,0.5-2.3,1.2-3.1,2.2c-1.1,1-2,2.3-2.7,3.6c-0.7,1.2-1.1,2.5-1.2,3.9c-0.1,1-0.1,1.7-0.1,2
	c0,0.8,0.1,1.7,0.3,2.5c0.2,0.7,0.5,1.3,0.9,1.8c0.5,0.7,1.1,1.3,1.9,1.7c0.7,0.4,1.5,0.6,2.4,0.6C209.1,32.9,210.2,32.5,211,31.8
	L211,31.8L211,31.8z M211,21.2c-0.6,0.2-1.3,0.3-1.9,0.3c-1.1,0-1.8-0.2-1.9-0.5c0-0.4,0.2-0.8,0.6-1c0.5-0.6,1.1-1.2,1.6-1.8
	c0.5-0.5,1-0.8,1.6-1.1c0.3-0.1,0.6-0.1,0.9-0.1c0.5,0,0.9,0.1,1.2,0.4c0.3,0.2,0.5,0.6,0.4,1c-0.1,0.6-0.4,1.1-0.9,1.5
	C212.2,20.4,211.6,20.9,211,21.2L211,21.2L211,21.2z M233,33.4c0.4,0,0.6-0.3,0.6-0.8c0-0.5-0.2-1-0.6-1.4c-0.2-0.1-0.4-0.2-0.6-0.3
	c-0.1-0.1-0.3-0.2-0.5-0.2c-0.6-0.3-1.2-0.7-1.8-1.2c-0.7-0.5-1.4-1.1-2-1.8c-0.6-0.5-1-1.1-1.3-1.9l-0.8-1.4l1.3-1
	c1.3-1.1,2.4-2,3.2-2.6s1.4-1,1.6-1.1c0.5-0.2,0.9-0.5,1.3-0.9c0.2-0.3,0.3-0.6,0.3-1c0-0.5-0.2-1-0.6-1.4c-0.3-0.4-0.7-0.6-1.1-0.7
	c-0.1,0-0.3,0.1-0.4,0.2c-0.6,0.3-1.1,0.7-1.6,1c-0.9,0.6-1.5,1-1.9,1.4c-0.1,0.1-0.2,0.2-0.4,0.5s-0.5,0.5-0.9,0.9
	c-0.6,0.5-1.2,0.8-1.9,1c-0.3,0-0.4-0.2-0.4-0.6c-0.1-0.8-0.4-1.6-0.9-2.3c-0.6-1.1-1-1.7-1.3-1.7c-0.2-0.2-0.4-0.3-0.7-0.3
	c-0.3,0.1-0.6,0.3-0.9,0.6c-0.2,0.2-0.3,0.5-0.4,0.8c0,0.2,0.1,0.3,0.2,0.5c0.1,0.2,0.3,0.4,0.5,0.7c0.4,1.1,0.8,2.1,1.3,3.1
	l0.6,1.9l-3.2,3.1c-0.8,0.7-1.5,1.4-2.2,2.1c-0.5,0.5-0.9,0.9-1.3,1.4c0.1,0.5,0.3,1,0.8,1.2c0.4,0.4,0.9,0.6,1.4,0.6
	c0.4-0.1,0.7-0.3,0.9-0.5c0.4-0.4,1.1-1.1,2.2-2.1c0.6-0.6,1.1-1.1,1.6-1.5c0.5-0.4,0.9-0.7,1.1-0.9c0.3,0,0.5,0.2,0.5,0.5
	c0,0.1,0,0.3,0.1,0.4c0.1,0.1,0.1,0.2,0.2,0.2c0.1,0,0.1,0,0.2,0c0,0.1,0.1,0.1,0.1,0.2c0,0.4,0.7,1.2,2,2.4
	c0.9,0.9,1.9,1.6,3.1,2.2c0.3,0.1,0.6,0.2,0.9,0.3c0.2,0.1,0.5,0.1,0.7,0.2C232.3,33.3,232.6,33.4,233,33.4L233,33.4L233,33.4z
	 M234.2,44.7c0.4,0,0.8-0.3,1.1-0.7c0.3-0.6,0.5-1.3,0.5-2c0-0.9,0.1-1.4,0.3-1.5c0.2-0.1,0.4-0.3,0.4-0.6c0.1-0.4,0.2-0.8,0.2-1.2
	c0.2-0.4,0.3-0.8,0.4-1.2c0.1-0.4,0.1-0.8,0.1-1.2c0.2-0.3,0.2-0.6,0.2-0.8c0-0.4,0.1-0.6,0.1-0.7c-0.1-0.1-0.2-0.2-0.1-0.3
	c0-0.1,0.1-0.1,0.1-0.2c0.2,0,0.5-0.5,0.8-1.5c0.3-0.6,0.4-1.3,0.5-2c0-0.3,0.2-0.5,0.4-0.6c0.2,0.2,0.4,0.3,0.6,0.3
	c0.3,0.1,0.6,0.1,0.9,0.1c1,0,1.9-0.2,2.8-0.5c0.6-0.1,1.2-0.4,1.7-0.8c0-0.1,0-0.2,0.1-0.2c0,0,0.1,0,0.1,0c0.8,0,1.5-0.2,2.1-0.7
	c0.8-0.4,1.5-1,2.1-1.7c0.1-0.4,0.4-0.8,0.8-1c0.5-0.5,0.8-1.1,1-1.7c0.3-0.7,0.5-1.4,0.5-2.2c0.1-1.3-0.4-2.5-1.2-3.5
	c-0.8-0.9-2-1.4-3.3-1.4c-1.4,0.1-2.8,0.4-4,1c0.1-0.2,0.2-0.5,0.4-0.6c0.3-0.5,0.5-1.1,0.4-1.7c0.1-0.5,0.1-0.9,0.1-0.9
	c0-0.3-0.1-0.6-0.2-0.9c-0.1-0.3-0.3-0.6-0.5-0.9c-0.2-0.2-0.4-0.3-0.6-0.4c-0.2-0.1-0.4-0.2-0.6-0.2c-0.3,0-0.5,0.2-0.6,0.4
	c-0.2,0.1-0.3,0.3-0.4,0.5c-0.1,0.1-0.1,0.2-0.1,0.4c0,0.6-0.1,1.1-0.2,1.6c-0.2,0.8-0.5,1.6-0.8,2.3c-0.8,2.1-1.8,4.8-2.9,8.1
	c-0.8,2.1-1.4,4.2-1.9,6.4c0,0.2-0.1,0.5-0.2,0.9c-0.1,0.3-0.1,0.6-0.1,0.9c-0.2,0.1-0.3,0.3-0.4,0.5c-0.1,0.2-0.2,0.4-0.2,0.6
	c0,0.4-0.1,0.9-0.2,1.3c-0.1,0.4-0.2,0.7-0.4,1.1c0,0.3-0.1,0.6-0.1,0.9c-0.1,0.2-0.1,0.5-0.1,0.7c-0.1,1-0.3,2-0.6,2.9
	c-0.1,0.6-0.2,1.1-0.2,1.7c0,0.3,0.1,0.6,0.2,0.8c0.1,0.3,0.4,0.4,0.6,0.5L234.2,44.7z M240.2,28c-0.2,0-0.3-0.2-0.3-0.5
	c0.1-0.9,0.3-1.8,0.7-2.6c0.4-1,0.9-1.8,1.6-2.6c0.7-0.7,1.6-1.4,2.5-1.9c0.7-0.4,1.5-0.7,2.4-0.7c0.5,0,0.9,0.2,1.2,0.5
	c0.3,0.4,0.5,0.9,0.4,1.5c0,0.7-0.2,1.5-0.6,2.1c-0.5,0.7-1,1.4-1.7,1.9c-1,0.7-2,1.2-3.2,1.5C242.3,27.6,241.3,27.9,240.2,28
	C240.2,28,240.2,28,240.2,28z M263.8,31.8c0.7-0.4,1.3-0.9,1.9-1.5c0.4-0.4,0.8-0.9,1.1-1.5c0.2-0.4,0.1-0.6-0.2-0.6
	c-0.1-0.1-0.3-0.2-0.4-0.3c-0.1-0.1-0.3-0.2-0.5-0.2c-0.1,0-0.2,0-0.3,0.1c-0.1,0.1-0.3,0.2-0.4,0.3c-0.1,0.2-0.2,0.3-0.3,0.3
	l-0.5,0.5c-0.2,0.2-0.3,0.3-0.5,0.4l-1,0.5c-0.4,0.2-0.9,0.4-1.4,0.4c-0.6,0-1.1-0.1-1.6-0.2c-1.1-0.2-1.7-1.1-1.7-2.8
	c0-0.3,0-0.7,0-1c0.1-0.7,0.2-1.5,0.4-2.2c0.1-0.3,0.3-0.6,0.7-0.6c0.2,0,0.5,0.1,0.7,0.1c0.7,0.5,1.6,0.7,2.5,0.6
	c0.7,0,1.4-0.1,2-0.3c1.2-0.6,2.3-1.5,3.2-2.5c0.8-0.8,1.3-1.7,1.5-2.8c0-1.1-0.5-2.1-1.2-2.9c-0.3-0.4-0.6-0.6-1-0.8
	c-0.5-0.2-1.1-0.4-1.7-0.4c-0.3,0-0.5-0.1-0.8-0.1c-0.2,0-0.5,0-0.7-0.1c-0.5,0-1,0.2-1.5,0.5c-1.2,0.5-2.3,1.2-3.1,2.2
	c-1.1,1.1-2,2.3-2.7,3.6c-0.7,1.2-1.1,2.5-1.2,3.9c-0.1,1-0.1,1.7-0.1,2c0,0.8,0.1,1.7,0.3,2.5c0.2,0.7,0.5,1.3,1,1.8
	c0.5,0.7,1.1,1.3,1.9,1.7c0.7,0.4,1.5,0.6,2.4,0.6C261.9,32.9,263,32.5,263.8,31.8L263.8,31.8L263.8,31.8z M263.8,21.2
	c-0.6,0.2-1.3,0.3-1.9,0.3c-1.1,0-1.8-0.1-2-0.5c0-0.4,0.2-0.8,0.5-1c0.5-0.6,1.1-1.2,1.6-1.8c0.5-0.5,1-0.8,1.6-1.1
	c0.3-0.1,0.6-0.1,0.9-0.1c0.5,0,0.9,0.1,1.2,0.4c0.3,0.2,0.5,0.6,0.5,1c-0.1,0.6-0.4,1.1-0.9,1.5C265,20.4,264.4,20.9,263.8,21.2
	L263.8,21.2L263.8,21.2z M272.2,31.8c0.3,0.4,0.7,0.7,1.2,0.8c0.4-0.1,0.8-0.4,1-0.8c0.2-0.3,0.3-0.5,0.5-0.8
	c0.1-0.3,0.2-0.5,0.2-0.6c0.1-0.6,0.2-1.2,0.4-1.8c0.1-0.7,0.4-1.3,0.7-1.8c0.4-0.8,0.9-1.5,1.5-2.1c0.8-0.9,1.7-1.8,2.8-2.5
	c0.9-0.6,2.3-1.4,4.2-2.5c0.4-0.2,0.8-0.4,1.2-0.5c0.4-0.1,0.8-0.2,1.1-0.2c0.5,0,1-0.1,1.5-0.1c0.2,0,0.4-0.2,0.4-0.4
	c0-0.1,0-0.1,0-0.2c0-0.1-0.1-0.1-0.2-0.1c-0.1-0.1-0.2-0.2-0.3-0.2c-0.2-0.1-0.3-0.3-0.3-0.5c-0.1-0.3-0.4-0.6-0.7-0.7
	c-0.4-0.2-0.8-0.2-1.2-0.2c-0.7,0-1.3,0.1-1.9,0.4c-0.1,0.1-0.4,0.2-0.8,0.3c-0.3,0.1-0.6,0.2-0.9,0.4c-1,0.6-2,1.3-2.9,2
	c-1,0.7-1.9,1.6-2.7,2.6c-0.1,0-0.1,0.1-0.2,0.1c-0.1,0-0.1,0.1-0.2,0.1c0,0,0,0,0-0.1c0.1-0.5,0.3-0.9,0.5-1.3
	c0.3-0.7,0.5-1.2,0.7-1.5c0.6-1.3,1-2.2,1.3-2.9c0.2-0.5,0.3-1,0.4-1.5c0-0.3-0.1-0.6-0.3-0.8c-0.3-0.3-0.7-0.5-1.1-0.4
	c-0.3,0-0.6,0.1-0.9,0.2c-1,1.7-1.9,3.6-2.6,5.5c-0.8,1.7-1.3,3.4-1.8,5.2l-0.2,1c-0.4,1.3-0.6,2.6-0.8,4c0,0.2-0.1,0.5,0,0.8
	c0,0.3,0,0.5,0.1,0.8C271.8,31.4,272,31.6,272.2,31.8L272.2,31.8L272.2,31.8z M293.2,33.2c0.5,0.1,1,0.2,1.5,0.2
	c2.1,0,4.1-0.7,5.8-1.9c0.7-0.3,1.3-0.8,1.8-1.4c0.2-0.4,0.4-0.9,0.4-1.4c-0.1-0.4-0.3-0.7-0.7-0.8c-0.2,0-0.3,0.1-0.4,0.3
	c-0.1,0.1-0.3,0.2-0.5,0.3c-0.2,0.1-0.5,0.3-0.8,0.5c-0.7,0.4-1.5,0.8-2.2,1.1c-1,0.2-2,0.4-3,0.4c-0.6,0-1.2-0.1-1.7-0.3
	c-0.3-0.2-0.5-0.6-0.5-1c0-0.1,0-0.5,0.1-1c0.4-2.8,1.1-5.5,2-8.2c0.1-0.2,0.4-0.8,0.9-1.8c0.2-0.4,0.4-0.8,0.7-1.1
	c0.1-0.2,0.2-0.5,0.4-0.6c0.2-0.2,0.4-0.3,0.6-0.3c0.3-0.1,0.5-0.1,0.8-0.1c0.2,0,0.5,0,0.7,0c1.1,0,2.2-0.1,3.3-0.2
	c0.7,0,1.4,0,2.1-0.1c0.3-0.1,0.5-0.5,0.5-0.9c0-0.2,0-0.5,0-0.7c-0.1-0.9-0.8-1.5-1.7-1.5c-0.1,0-0.1,0-0.2,0c-0.3,0-0.6,0-1,0.1
	c-0.8,0.2-1.6,0.3-2.4,0.3c-0.4,0-0.6-0.1-0.6-0.4c0.1-0.4,0.2-0.7,0.5-1c0.2-0.3,0.5-0.8,0.9-1.5c0.1-0.2,0.3-0.5,0.5-0.8
	s0.4-0.7,0.6-1.1c0.2-0.3,0.3-0.5,0.4-0.8c0-0.2-0.1-0.3-0.2-0.4c-0.1-0.2-0.2-0.3-0.3-0.4c-0.4-0.3-0.8-0.6-1.3-0.7
	c-0.3,0-0.6,0.1-0.9,0.3c-0.3,0.3-0.6,0.6-0.9,1c-0.2,0.4-0.4,0.6-0.5,0.7c-0.3,0.5-0.6,1-0.8,1.4c-0.2,0.4-0.4,0.7-0.5,0.9
	c-0.2,0.3-0.3,0.7-0.5,1.1c-0.2,0.4-0.3,0.7-0.5,1c-0.1,0.4-0.4,0.7-0.7,0.8c-0.7,0.1-1.5,0.2-2.2,0.1c-0.3,0-0.5,0-0.8-0.1
	c-0.3,0.1-0.5,0.3-0.7,0.6c-0.2,0.3-0.4,0.6-0.4,1c0,0.2,0.1,0.4,0.2,0.6c0.1,0.2,0.3,0.3,0.6,0.4l2,0.6l-1.4,2.9l-0.7,2l-0.9,2.6
	c-0.2,0.7-0.3,1.4-0.3,2.1c-0.1,0.9-0.1,1.7-0.1,2.5c-0.1,0.6,0,1.1,0.2,1.6c0,0,0.1,0.1,0.1,0.2c0.1,0.1,0.1,0.1,0.1,0.2
	c0.2,0.6,0.6,1.2,1.1,1.7C292,32.6,292.6,33,293.2,33.2C293.2,33.2,293.2,33.2,293.2,33.2z M311.5,11.6c0.3,0.3,0.7,0.5,1.1,0.5
	c0.7-0.1,1.3-0.5,1.6-1.1c0.3-0.4,0.6-0.8,0.9-1.2c0.2-0.3,0.2-0.6,0.2-0.9c0-0.4-0.1-0.8-0.3-1.2c-0.3-0.7-0.9-1.1-1.5-1.2
	c-0.3,0-0.5,0.1-0.7,0.2c-0.1,0-0.3,0.1-0.4,0.2c-0.1,0.1-0.1,0.2-0.1,0.4c0,0.5-0.2,1-0.5,1.4c-0.2,0.4-0.5,0.7-0.9,0.9
	c-0.2,0-0.2,0.3,0,0.9C311,10.8,311.2,11.3,311.5,11.6L311.5,11.6L311.5,11.6z M306.6,31.9c0.2,0.3,0.6,0.6,1,0.7
	c0.3-0.1,0.5-0.3,0.5-0.5c0.2-0.6,0.4-1.3,0.5-2c0.3-0.4,0.5-0.9,0.5-1.5c0.1-0.6,0.2-1,0.3-1.2c0.3-0.9,0.6-1.7,1-2.5
	c0.2-0.9,0.5-1.7,0.9-2.5c0.4-0.7,0.6-1.5,0.6-2.3c0-0.3-0.1-0.7-0.3-0.9c-0.2-0.3-0.4-0.6-0.6-0.8c-0.1-0.1-0.3-0.2-0.5-0.2
	c-0.2,0-0.4,0-0.5,0.1c-0.2,0-0.4,0.1-0.6,0.2c-0.1,0.1-0.2,0.3-0.2,0.4c-0.7,2.4-1.5,4.7-2.4,7c-0.2,0.5-0.4,1.1-0.4,1.6
	c0,0.2-0.1,0.3-0.1,0.5c-0.1,0.2-0.1,0.4-0.1,0.6c-0.2,0.4-0.3,0.8-0.2,1.2C305.9,30.6,306.1,31.4,306.6,31.9L306.6,31.9z
	 M318.5,33.7c0.5,0.1,1,0.1,1.5,0.1c0.9,0,1.7-0.1,2.5-0.2c0.6-0.1,1.3-0.2,1.9-0.4c0.5-0.2,1-0.5,1.4-0.8c0.3-0.3,0.5-0.7,0.5-1
	c0-0.6-0.3-1.3-0.6-1.8c-0.3-0.6-0.7-1.2-1.2-1.6c-1.2-1-2.4-2-3.6-2.9c-0.2-0.2-0.4-0.3-0.6-0.5c-0.2-0.1-0.3-0.3-0.5-0.4
	c-0.1-0.1-0.2-0.2-0.2-0.4c0-0.2,0.1-0.3,0.1-0.5c0-0.3,0-0.6,0.1-0.9c0-0.2,0.1-0.4,0.2-0.6c1.8-2.6,2.6-3.7,2.6-3.4
	c0.1,0,0.2,0,0.3-0.1c0.1-0.1,0.2-0.3,0.2-0.4c1.5-1.1,3.1-2,4.9-2.7c0.2,0,0.3,0,0.5,0.1c0.1,0.1,0.1,0.2,0.1,0.4
	c-0.1,0.6-0.4,1.1-0.7,1.6c-0.2,0.5-0.5,0.9-1,1.2c-0.1,0.1-0.1,0.1-0.2,0.2c-0.1,0.1-0.1,0.2-0.1,0.3c0,0.2,0,0.3,0.1,0.5
	c0,0.1,0.1,0.1,0.2,0.2c0.1,0,0.2,0.1,0.2,0.2c0.1,0.1,0.1,0.2,0.2,0.3c0.1,0.3,0.4,0.6,0.7,0.5c0.7-0.1,1.3-0.4,1.8-0.8
	c0.2-0.2,0.4-0.4,0.5-0.6c0.1-0.2,0.2-0.3,0.2-0.5c0-0.1,0-0.2,0.1-0.2c0,0,0.1,0,0.1,0c0.3,0,0.5-0.3,0.7-1
	c0.2-0.7,0.2-1.4,0.2-2.1c-0.2-0.5-0.5-1-0.8-1.4c-0.4-0.4-0.8-0.8-1.3-1.1c-0.4-0.2-0.9-0.4-1.4-0.4c-0.6,0-1.2,0.1-1.7,0.4
	c-1.2,0.5-2.4,1.1-3.5,1.9c-1.3,0.8-2.5,1.7-3.6,2.8c-0.7,0.8-1.3,1.6-1.8,2.6c-0.4,0.8-0.7,1.6-0.8,2.5c0,0.6,0.2,1.3,0.4,1.8
	c0.1,0.4,0.4,0.8,0.8,1v0.2c0,0.3,0.1,0.7,0.5,0.8c0.4,0.4,1.1,1,2,1.8c0.4,0.2,0.7,0.4,1,0.6c0.2,0.1,0.4,0.3,0.5,0.5
	c0.2,0,0.3,0.1,0.5,0.2c0.1,0.1,0.3,0.1,0.5,0.2c0.2,0.1,0.3,0.3,0.4,0.5c0,0,0,0-0.1,0c-0.4,0.4-1,0.6-1.5,0.6
	c-0.8,0.2-1.7,0.3-2.5,0.3c-1.2-0.1-2.1-0.2-2.7-0.2c-0.2,0-0.4,0-0.5,0.1c-0.1,0.1-0.2,0.2-0.1,0.3v0.4c0.3,0.5,0.7,0.9,1.1,1.2
	C317.3,33.1,317.8,33.5,318.5,33.7L318.5,33.7L318.5,33.7z M341.3,31.8c0.7-0.4,1.3-0.9,1.9-1.5c0.4-0.4,0.8-0.9,1.1-1.5
	c0.2-0.4,0.1-0.6-0.2-0.6c-0.1-0.1-0.3-0.2-0.4-0.3c-0.1-0.1-0.3-0.2-0.5-0.2c-0.1,0-0.2,0-0.3,0.1c-0.1,0.1-0.3,0.2-0.4,0.3
	c-0.1,0.2-0.2,0.3-0.3,0.3l-0.5,0.5c-0.2,0.2-0.3,0.3-0.5,0.4l-1,0.5c-0.4,0.2-0.9,0.4-1.4,0.4c-0.6,0-1.1-0.1-1.6-0.2
	c-1.1-0.2-1.7-1.1-1.7-2.8c0-0.3,0-0.7,0-1c0.1-0.7,0.2-1.5,0.4-2.2c0.1-0.3,0.3-0.6,0.7-0.6c0.2,0,0.5,0.1,0.7,0.1
	c0.7,0.5,1.6,0.7,2.5,0.6c0.7,0,1.4-0.1,2-0.3c1.2-0.6,2.3-1.5,3.2-2.5c0.8-0.8,1.3-1.7,1.5-2.8c0-1.1-0.5-2.1-1.2-2.9
	c-0.3-0.4-0.6-0.6-1-0.8c-0.5-0.2-1.1-0.4-1.7-0.4c-0.3,0-0.5-0.1-0.8-0.1c-0.2,0-0.5,0-0.7-0.1c-0.5,0-1,0.2-1.5,0.5
	c-1.2,0.5-2.3,1.2-3.1,2.2c-1.1,1-2,2.3-2.7,3.6c-0.7,1.2-1.1,2.5-1.2,3.9c-0.1,1-0.1,1.7-0.1,2c0,0.8,0.1,1.7,0.3,2.5
	c0.2,0.7,0.5,1.3,1,1.8c0.5,0.7,1.1,1.3,1.9,1.7c0.7,0.4,1.5,0.6,2.4,0.6C339.4,32.9,340.4,32.5,341.3,31.8L341.3,31.8L341.3,31.8z
	 M341.2,21.2c-0.6,0.2-1.3,0.3-1.9,0.3c-1.1,0-1.8-0.1-2-0.5c0-0.4,0.2-0.8,0.5-1c0.5-0.6,1.1-1.2,1.6-1.8c0.5-0.5,1-0.8,1.6-1.1
	c0.3-0.1,0.6-0.1,0.9-0.1c0.5,0,0.9,0.1,1.2,0.4c0.3,0.2,0.5,0.6,0.5,1c-0.1,0.6-0.4,1.1-0.9,1.5C342.5,20.4,341.9,20.9,341.2,21.2
	L341.2,21.2L341.2,21.2z"/>
</svg>
